<svg width="164" height="24" viewBox="0 0 164 24" fill="none" xmlns="http://www.w3.org/2000/svg">
<g clip-path="url(#clip0_11_7789)">
<mask id="mask0_11_7789" style="mask-type:luminance" maskUnits="userSpaceOnUse" x="0" y="0" width="164" height="24">
<path d="M164 0H0V23.1567H164V0Z" fill="white"/>
</mask>
<g mask="url(#mask0_11_7789)">
<mask id="mask1_11_7789" style="mask-type:luminance" maskUnits="userSpaceOnUse" x="19" y="1" width="18" height="22">
<path d="M36.8403 1.04785H19.3105V22.1583H36.8403V1.04785Z" fill="white"/>
</mask>
<g mask="url(#mask1_11_7789)">
<mask id="mask2_11_7789" style="mask-type:luminance" maskUnits="userSpaceOnUse" x="19" y="1" width="18" height="22">
<path d="M24.3734 22.0751H19.3438L29.9802 2.29545C30.2936 1.54685 31.0192 1.08105 31.8108 1.08105H36.8405L26.2039 20.8607C25.8741 21.6093 25.165 22.0751 24.3734 22.0751Z" fill="white"/>
</mask>
<g mask="url(#mask2_11_7789)">
<path d="M0 0.0498047H57.4206V23.1566H0V0.0498047Z" fill="#FFA07A"/>
</g>
</g>
<mask id="mask3_11_7789" style="mask-type:luminance" maskUnits="userSpaceOnUse" x="10" y="5" width="16" height="18">
<path d="M25.2959 5.65576H10.1904V22.1582H25.2959V5.65576Z" fill="white"/>
</mask>
<g mask="url(#mask3_11_7789)">
<mask id="mask4_11_7789" style="mask-type:luminance" maskUnits="userSpaceOnUse" x="10" y="5" width="16" height="18">
<path d="M15.2533 22.075H10.2236L18.3701 6.88676C18.6999 6.15478 19.409 5.67236 20.2005 5.67236H25.2302L17.0838 20.8606C16.7539 21.6092 16.0449 22.075 15.2533 22.075Z" fill="white"/>
</mask>
<g mask="url(#mask4_11_7789)">
<path d="M0 0.0498047H57.4206V23.1566H0V0.0498047Z" fill="#FFA07A"/>
</g>
</g>
<mask id="mask5_11_7789" style="mask-type:luminance" maskUnits="userSpaceOnUse" x="0" y="8" width="15" height="15">
<path d="M14.2972 8.8999H0.972656V22.1584H14.2972V8.8999Z" fill="white"/>
</mask>
<g mask="url(#mask5_11_7789)">
<mask id="mask6_11_7789" style="mask-type:luminance" maskUnits="userSpaceOnUse" x="1" y="8" width="14" height="15">
<path d="M6.05116 22.0752H1.02148L7.3704 10.1475C7.7002 9.3989 8.40931 8.93311 9.20088 8.93311H14.2305L7.88162 20.8608C7.55181 21.6094 6.84271 22.0752 6.05116 22.0752Z" fill="white"/>
</mask>
<g mask="url(#mask6_11_7789)">
<path d="M-0.000976562 0.0498047H57.4196V23.1566H-0.000976562V0.0498047Z" fill="#FFA07A"/>
</g>
</g>
<mask id="mask7_11_7789" style="mask-type:luminance" maskUnits="userSpaceOnUse" x="28" y="1" width="29" height="22">
<path d="M56.4306 1.04785H28.5283V22.1583H56.4306V1.04785Z" fill="white"/>
</mask>
<g mask="url(#mask7_11_7789)">
<mask id="mask8_11_7789" style="mask-type:luminance" maskUnits="userSpaceOnUse" x="28" y="1" width="29" height="22">
<path d="M56.3486 22.1088L45.1347 1.11475H39.8909L28.5947 22.1088H34.8446L42.5295 7.7357L45.7781 13.9075L42.3315 13.9241L39.9404 18.3824L48.1197 18.3658L50.0985 22.1088H56.3486Z" fill="white"/>
</mask>
<g mask="url(#mask8_11_7789)">
<path d="M0 0.0498047H57.4206V23.1566H0V0.0498047Z" fill="#FFA07A"/>
</g>
</g>
<mask id="mask9_11_7789" style="mask-type:luminance" maskUnits="userSpaceOnUse" x="59" y="3" width="2" height="20">
<path d="M60.4546 3.34375H59.9766V22.1086H60.4546V3.34375Z" fill="white"/>
</mask>
<g mask="url(#mask9_11_7789)">
<path d="M59.9766 3.34375H60.4546V22.1086H59.9766V3.34375Z" fill="#FFA07A"/>
</g>
<mask id="mask10_11_7789" style="mask-type:luminance" maskUnits="userSpaceOnUse" x="103" y="12" width="16" height="11">
<path d="M118.271 12.6094H103.116V22.1083H118.271V12.6094Z" fill="white"/>
</mask>
<g mask="url(#mask10_11_7789)">
<mask id="mask11_11_7789" style="mask-type:luminance" maskUnits="userSpaceOnUse" x="103" y="12" width="16" height="11">
<path d="M105.376 22.1087H118.238V20.3786H106.2V14.3399H118.238V12.6265H105.376C104.139 12.6265 103.133 13.3418 103.133 14.2401V20.4951C103.133 21.3767 104.139 22.1087 105.376 22.1087Z" fill="white"/>
</mask>
<g mask="url(#mask11_11_7789)">
<path d="M63.7861 11.5781H119.261V23.1565H63.7861V11.5781Z" fill="#FFA07A"/>
</g>
</g>
<mask id="mask12_11_7789" style="mask-type:luminance" maskUnits="userSpaceOnUse" x="64" y="12" width="17" height="11">
<path d="M80.5402 12.6094H64.7588V22.1582H80.5402V12.6094Z" fill="white"/>
</mask>
<g mask="url(#mask12_11_7789)">
<mask id="mask13_11_7789" style="mask-type:luminance" maskUnits="userSpaceOnUse" x="64" y="12" width="17" height="11">
<path d="M77.0775 22.1248L74.1423 17.916H67.8592V22.1248H64.8086V12.6592H76.2531C79.3202 12.6592 80.4911 13.5908 80.4911 14.9382V15.6203C80.4911 16.7515 79.7491 17.6498 77.3909 17.8827L80.5076 22.1248H77.0775ZM77.4404 14.905C77.4404 14.5223 77.028 14.356 76.2696 14.356H67.8757V16.2025H76.2696C77.0775 16.2025 77.4404 16.0861 77.4404 15.6369V14.905Z" fill="white"/>
</mask>
<g mask="url(#mask13_11_7789)">
<path d="M63.7861 11.5781H119.261V23.1565H63.7861V11.5781Z" fill="#FFA07A"/>
</g>
</g>
<mask id="mask14_11_7789" style="mask-type:luminance" maskUnits="userSpaceOnUse" x="81" y="12" width="21" height="11">
<path d="M101.45 12.5762H81.5127V22.125H101.45V12.5762Z" fill="white"/>
</mask>
<g mask="url(#mask14_11_7789)">
<mask id="mask15_11_7789" style="mask-type:luminance" maskUnits="userSpaceOnUse" x="81" y="12" width="21" height="11">
<path d="M101.434 22.0917L92.7102 12.6094H90.3025L81.5293 22.0917H85.3387L91.5228 15.2378L94.1119 18.1656L90.863 18.1823L88.9502 20.3116H96.0082L97.5915 22.0917H101.434Z" fill="white"/>
</mask>
<g mask="url(#mask15_11_7789)">
<path d="M63.7852 11.5781H119.26V23.1565H63.7852V11.5781Z" fill="#FFA07A"/>
</g>
</g>
<mask id="mask16_11_7789" style="mask-type:luminance" maskUnits="userSpaceOnUse" x="121" y="12" width="4" height="11">
<path d="M124.455 12.6431H121.338V22.1087H124.455V12.6431Z" fill="white"/>
</mask>
<g mask="url(#mask16_11_7789)">
<path d="M120.315 8.81641H125.477V23.1396H120.315V8.81641Z" fill="#FFA07A"/>
</g>
<mask id="mask17_11_7789" style="mask-type:luminance" maskUnits="userSpaceOnUse" x="121" y="9" width="4" height="3">
<path d="M124.455 9.84814H121.338V11.7113H124.455V9.84814Z" fill="white"/>
</mask>
<g mask="url(#mask17_11_7789)">
<path d="M120.315 8.81689H125.477V23.1401H120.315V8.81689Z" fill="#FFA07A"/>
</g>
<mask id="mask18_11_7789" style="mask-type:luminance" maskUnits="userSpaceOnUse" x="127" y="12" width="19" height="11">
<path d="M145.398 12.5928H127.506V22.0584H145.398V12.5928Z" fill="white"/>
</mask>
<g mask="url(#mask18_11_7789)">
<mask id="mask19_11_7789" style="mask-type:luminance" maskUnits="userSpaceOnUse" x="127" y="12" width="19" height="11">
<path d="M143.865 22.0584L130.161 15.1713V22.0584H127.506V12.5928H130.144L142.694 19.0806V12.5928H145.365V22.0584H143.865Z" fill="white"/>
</mask>
<g mask="url(#mask19_11_7789)">
<path d="M127.506 12.5928H145.365V22.0584H127.506V12.5928Z" fill="#FFA07A"/>
</g>
</g>
<mask id="mask20_11_7789" style="mask-type:luminance" maskUnits="userSpaceOnUse" x="82" y="1" width="6" height="6">
<path d="M87.7628 1.04785H82.123V6.4045H87.7628V1.04785Z" fill="white"/>
</mask>
<g mask="url(#mask20_11_7789)">
<mask id="mask21_11_7789" style="mask-type:luminance" maskUnits="userSpaceOnUse" x="82" y="1" width="6" height="6">
<path d="M82.1396 5.82226V1.61346C82.1396 1.29739 82.3871 1.04785 82.7167 1.04785H87.7464V2.01271H83.3765V3.22709H87.367V4.19196H83.3765V5.42301H87.7464V6.38785H82.7167C82.4036 6.38785 82.1396 6.13833 82.1396 5.82226Z" fill="white"/>
</mask>
<g mask="url(#mask21_11_7789)">
<path d="M64.0986 0H146.42V7.46936H64.0986V0Z" fill="#FFA07A"/>
</g>
</g>
<mask id="mask22_11_7789" style="mask-type:luminance" maskUnits="userSpaceOnUse" x="96" y="1" width="7" height="6">
<path d="M102.358 1.04785H96.7178V6.4045H102.358V1.04785Z" fill="white"/>
</mask>
<g mask="url(#mask22_11_7789)">
<mask id="mask23_11_7789" style="mask-type:luminance" maskUnits="userSpaceOnUse" x="96" y="1" width="7" height="6">
<path d="M96.751 5.82226V1.61346C96.751 1.29739 97.0149 1.04785 97.3283 1.04785H102.358V2.01271H97.9878V3.22709H101.979V4.19196H97.9878V5.42301H102.358V6.38785H97.3283C97.0149 6.38785 96.751 6.13833 96.751 5.82226Z" fill="white"/>
</mask>
<g mask="url(#mask23_11_7789)">
<path d="M64.0986 0H146.42V7.46936H64.0986V0Z" fill="#FFA07A"/>
</g>
</g>
<mask id="mask24_11_7789" style="mask-type:luminance" maskUnits="userSpaceOnUse" x="89" y="1" width="7" height="6">
<path d="M89.5938 1.04785H90.8306V5.42301H89.5938V1.04785ZM89.5938 5.42301H95.0359V6.38785H89.5938V5.42301Z" fill="white"/>
</mask>
<g mask="url(#mask24_11_7789)">
<path d="M64.0996 0H146.421V7.46936H64.0996V0Z" fill="#FFA07A"/>
</g>
<mask id="mask25_11_7789" style="mask-type:luminance" maskUnits="userSpaceOnUse" x="104" y="1" width="7" height="6">
<path d="M110.503 1.04785H104.171V6.4045H110.503V1.04785Z" fill="white"/>
</mask>
<g mask="url(#mask25_11_7789)">
<mask id="mask26_11_7789" style="mask-type:luminance" maskUnits="userSpaceOnUse" x="104" y="1" width="7" height="6">
<path d="M109.267 2.32879C109.267 2.11253 109.102 2.01271 108.788 2.01271H105.408V3.06075H108.788C109.118 3.06075 109.267 2.99421 109.267 2.74468V2.32879ZM109.118 6.4045L107.931 4.02562H105.391V6.4045H104.171V1.04785H108.788C110.025 1.04785 110.503 1.58019 110.503 2.34542V2.72804C110.503 3.36019 110.207 3.87589 109.25 4.00896L110.437 6.4045H109.118Z" fill="white"/>
</mask>
<g mask="url(#mask26_11_7789)">
<path d="M64.0986 0H146.42V7.46936H64.0986V0Z" fill="#FFA07A"/>
</g>
</g>
<mask id="mask27_11_7789" style="mask-type:luminance" maskUnits="userSpaceOnUse" x="130" y="1" width="8" height="6">
<path d="M137.17 1.04785H130.145V6.4045H137.17V1.04785Z" fill="white"/>
</mask>
<g mask="url(#mask27_11_7789)">
<mask id="mask28_11_7789" style="mask-type:luminance" maskUnits="userSpaceOnUse" x="130" y="1" width="8" height="6">
<path d="M135.949 2.32879C135.949 2.11253 135.784 2.01271 135.471 2.01271H131.876C131.563 2.01271 131.398 2.11253 131.398 2.32879V5.12356C131.398 5.33984 131.563 5.43963 131.876 5.43963H135.471C135.784 5.43963 135.949 5.33984 135.949 5.12356V2.32879ZM131.876 6.4045C130.64 6.4045 130.178 5.87215 130.178 5.10694V2.34542C130.178 1.58019 130.64 1.04785 131.876 1.04785H135.471C136.708 1.04785 137.17 1.58019 137.17 2.34542V5.10694C137.17 5.87215 136.708 6.4045 135.471 6.4045H131.876Z" fill="white"/>
</mask>
<g mask="url(#mask28_11_7789)">
<path d="M64.0986 0H146.42V7.46936H64.0986V0Z" fill="#FFA07A"/>
</g>
</g>
<mask id="mask29_11_7789" style="mask-type:luminance" maskUnits="userSpaceOnUse" x="139" y="1" width="7" height="6">
<path d="M145.398 1.08105H139.099V6.43771H145.398V1.08105Z" fill="white"/>
</mask>
<g mask="url(#mask29_11_7789)">
<mask id="mask30_11_7789" style="mask-type:luminance" maskUnits="userSpaceOnUse" x="139" y="1" width="7" height="6">
<path d="M144.161 2.36196C144.161 2.1457 143.997 2.04588 143.683 2.04588H140.319V3.07729H143.683C144.013 3.07729 144.161 3.01074 144.161 2.76121V2.34532V2.36196ZM144.03 6.42102L142.859 4.05879H140.336V6.42102H139.115V1.09766H143.7C144.936 1.09766 145.398 1.61336 145.398 2.37859V2.76121C145.398 3.39337 145.101 3.90906 144.161 4.02551L145.349 6.4044H144.03V6.42102Z" fill="white"/>
</mask>
<g mask="url(#mask30_11_7789)">
<path d="M64.0986 0H146.42V7.46936H64.0986V0Z" fill="#FFA07A"/>
</g>
</g>
<mask id="mask31_11_7789" style="mask-type:luminance" maskUnits="userSpaceOnUse" x="65" y="1" width="9" height="6">
<path d="M73.0862 1.04785H65.1045V6.4045H73.0862V1.04785Z" fill="white"/>
</mask>
<g mask="url(#mask31_11_7789)">
<mask id="mask32_11_7789" style="mask-type:luminance" maskUnits="userSpaceOnUse" x="65" y="1" width="9" height="6">
<path d="M73.0699 6.4045L69.5573 1.04785H68.6501L65.1211 6.4045H66.4899L69.112 2.32879L70.2168 4.05889H69.079L68.271 5.33984H71.0083L71.6846 6.4045H73.0699Z" fill="white"/>
</mask>
<g mask="url(#mask32_11_7789)">
<path d="M64.0986 0H146.42V7.46936H64.0986V0Z" fill="#FFA07A"/>
</g>
</g>
<mask id="mask33_11_7789" style="mask-type:luminance" maskUnits="userSpaceOnUse" x="111" y="1" width="9" height="6">
<path d="M119.788 1.04785H111.807V6.4045H119.788V1.04785Z" fill="white"/>
</mask>
<g mask="url(#mask33_11_7789)">
<mask id="mask34_11_7789" style="mask-type:luminance" maskUnits="userSpaceOnUse" x="111" y="1" width="9" height="6">
<path d="M119.772 6.4045L116.259 1.04785H115.352L111.823 6.4045H113.192L115.814 2.32879L116.919 4.05889H115.781L114.973 5.33984H117.71L118.386 6.4045H119.772Z" fill="white"/>
</mask>
<g mask="url(#mask34_11_7789)">
<path d="M64.0986 0H146.42V7.46936H64.0986V0Z" fill="#FFA07A"/>
</g>
</g>
<mask id="mask35_11_7789" style="mask-type:luminance" maskUnits="userSpaceOnUse" x="74" y="1" width="7" height="6">
<path d="M80.2926 1.04785H74.1748V6.4045H80.2926V1.04785Z" fill="white"/>
</mask>
<g mask="url(#mask35_11_7789)">
<mask id="mask36_11_7789" style="mask-type:luminance" maskUnits="userSpaceOnUse" x="74" y="1" width="7" height="6">
<path d="M75.0983 6.40447H80.2762V5.4396H75.4282V2.02932H80.2762V1.06445H75.0983C74.6035 1.06445 74.1914 1.46371 74.1914 1.97941V5.50615C74.1914 6.00522 74.587 6.42109 75.0983 6.42109V6.40447Z" fill="white"/>
</mask>
<g mask="url(#mask36_11_7789)">
<path d="M64.0986 0H146.42V7.46936H64.0986V0Z" fill="#FFA07A"/>
</g>
</g>
<mask id="mask37_11_7789" style="mask-type:luminance" maskUnits="userSpaceOnUse" x="121" y="1" width="8" height="6">
<path d="M128.281 1.01465H121.256V6.40457H128.281V1.01465Z" fill="white"/>
</mask>
<g mask="url(#mask37_11_7789)">
<mask id="mask38_11_7789" style="mask-type:luminance" maskUnits="userSpaceOnUse" x="121" y="1" width="8" height="6">
<path d="M126.912 4.65779C126.912 4.92397 126.698 5.14021 126.434 5.14021H122.493V2.26228H126.434C126.698 2.26228 126.912 2.47854 126.912 2.74471V4.67445V4.65779ZM125.808 1.03125H121.256V6.38788H125.808C127.506 6.38788 128.231 5.82229 128.231 4.49145V2.99424C128.231 1.61349 127.506 1.03125 125.808 1.03125Z" fill="white"/>
</mask>
<g mask="url(#mask38_11_7789)">
<path d="M64.0986 0H146.42V7.46936H64.0986V0Z" fill="#FFA07A"/>
</g>
</g>
<mask id="mask39_11_7789" style="mask-type:luminance" maskUnits="userSpaceOnUse" x="148" y="12" width="16" height="11">
<path d="M164 12.5928H148.416V22.0917H164V12.5928Z" fill="white"/>
</mask>
<g mask="url(#mask39_11_7789)">
<mask id="mask40_11_7789" style="mask-type:luminance" maskUnits="userSpaceOnUse" x="148" y="12" width="16" height="11">
<path d="M152.737 22.0584C150.032 22.0584 148.416 21.3763 148.416 19.8791V14.955C148.416 13.2748 150.016 12.5928 152.737 12.5928H160.817V14.3062H152.72C151.764 14.3062 151.467 14.5558 151.467 14.9717V19.8791C151.467 20.2451 152.044 20.3449 152.72 20.3449H159.696C160.372 20.3449 160.933 20.2451 160.933 19.8958V16.9014H164V19.8958C164 21.576 162.631 22.0584 159.696 22.0584H152.737Z" fill="white"/>
</mask>
<g mask="url(#mask40_11_7789)">
<path d="M148.416 12.5928H164V22.0584H148.416V12.5928Z" fill="#FFA07A"/>
</g>
</g>
</g>
</g>
<defs>
<clipPath id="clip0_11_7789">
<rect width="164" height="23.1567" fill="white"/>
</clipPath>
</defs>
</svg>
