<svg width="164" height="40" viewBox="0 0 164 40" fill="none" xmlns="http://www.w3.org/2000/svg">
<g clip-path="url(#clip0_11_7726)">
<path d="M33.4863 2.57124V36.1417C33.4863 36.5713 33.8335 36.9185 34.2631 36.9185H39.0505C39.4801 36.9185 39.8273 36.5713 39.8273 36.1417V2.57124C39.8273 2.14164 39.4801 1.79443 39.0505 1.79443H34.2631C33.8335 1.79443 33.4863 2.14164 33.4863 2.57124Z" fill="#FFA07A"/>
<path d="M20.1506 4.63433C19.7269 3.22489 18.4293 2.25977 16.9581 2.25977H14.0451C12.6121 2.25977 11.3409 3.1837 10.8996 4.54899L0.789304 35.8096C0.618642 36.3687 1.03941 36.9366 1.62496 36.9366H6.45058C6.85075 36.9366 7.20679 36.6718 7.32155 36.2834L8.64859 31.8049L9.45189 29.0949H9.46365L11.1968 23.3307L13.0064 17.3192L13.5684 15.4449L15.1779 10.1043L16.6521 15.0477L16.6785 15.1359L21.5689 31.4283L23.0431 36.3128C23.1519 36.6806 23.4933 36.9336 23.8787 36.9336H28.6485C29.2369 36.9336 29.6577 36.3687 29.49 35.8037L20.1536 4.63433H20.1506Z" fill="#FFA07A"/>
<path d="M99.3582 18.699C100.02 18.699 100.656 18.746 101.265 18.8402C101.871 18.9344 102.412 19.1315 102.883 19.4287C103.351 19.7288 103.748 20.1466 104.066 20.6822C104.302 21.0765 104.478 21.559 104.602 22.124C104.681 22.4918 104.999 22.7595 105.373 22.7595H109.989C110.472 22.7595 110.846 22.3241 110.769 21.8474C110.542 20.4115 110.154 19.1639 109.604 18.1075C108.942 16.8305 108.097 15.8006 107.073 15.0121C106.052 14.2264 104.896 13.6585 103.61 13.3113C102.324 12.9671 100.962 12.7935 99.523 12.7935C97.7546 12.7935 96.1421 13.0465 94.6885 13.5497C93.2379 14.0528 91.9932 14.8179 90.9546 15.8389C89.9188 16.8629 89.1155 18.1458 88.5476 19.6906C87.9827 21.2354 87.6973 23.0303 87.6973 25.0782C87.6973 27.1261 87.9797 28.9681 88.5476 30.51C89.1126 32.0548 89.9012 33.3377 90.9134 34.3616C91.9226 35.3856 93.1467 36.1507 94.5856 36.6538C96.0244 37.157 97.6133 37.41 99.3582 37.41C100.768 37.41 102.124 37.2747 103.425 37.0069C104.722 36.7391 105.885 36.2595 106.909 35.5651C107.93 34.8707 108.795 33.9409 109.501 32.7757C110.081 31.8164 110.49 30.6424 110.722 29.2565C110.804 28.7769 110.428 28.3384 109.942 28.3384H105.005C104.649 28.3384 104.349 28.5797 104.246 28.921C104.119 29.3477 103.934 29.7037 103.692 29.9921C103.348 30.4011 102.939 30.7189 102.468 30.9366C101.998 31.1573 101.494 31.2985 100.953 31.3633C100.412 31.4251 99.882 31.4574 99.3553 31.4574C97.4456 31.4574 96.0568 30.9307 95.1858 29.8744C94.3148 28.8181 93.8794 27.2056 93.8794 25.0311C93.8794 22.8566 94.306 21.3001 95.1652 20.2614C96.0215 19.2198 97.4191 18.7019 99.3553 18.7019L99.3582 18.699Z" fill="#FFA07A"/>
<path d="M135.351 16.854C134.451 15.6594 133.256 14.6825 131.761 13.9263C130.266 13.1701 128.401 12.7935 126.159 12.7935C123.917 12.7935 122.045 13.1701 120.539 13.9263C119.032 14.6825 117.814 15.6506 116.887 16.8305C115.96 18.0134 115.304 19.3345 114.916 20.7999C114.53 22.2623 114.333 23.7188 114.333 25.1694C114.333 26.9967 114.61 28.665 115.163 30.1775C115.716 31.6899 116.505 32.9816 117.529 34.0497C118.55 35.1208 119.788 35.9476 121.242 36.5302C122.693 37.1128 124.331 37.4041 126.156 37.4041C127.98 37.4041 129.613 37.1128 131.052 36.5302C132.491 35.9476 133.715 35.1208 134.724 34.0497C135.733 32.9787 136.507 31.6958 137.046 30.1981C137.584 28.7033 137.855 27.0438 137.855 25.2165C137.855 23.7688 137.664 22.3123 137.275 20.847C136.887 19.3846 136.243 18.0546 135.345 16.854H135.351ZM131.532 27.4616C131.349 28.2031 131.04 28.8475 130.599 29.3977C130.155 29.948 129.569 30.3834 128.836 30.6953C128.104 31.0102 127.197 31.1691 126.118 31.1691C125.038 31.1691 124.131 31.0102 123.399 30.6953C122.666 30.3805 122.086 29.945 121.657 29.3977C121.227 28.8475 120.915 28.2001 120.721 27.4616C120.53 26.723 120.433 25.9256 120.433 25.0753C120.433 24.2249 120.521 23.4304 120.703 22.6889C120.883 21.9474 121.195 21.303 121.636 20.7528C122.08 20.2026 122.666 19.7671 123.399 19.4552C124.131 19.1403 125.038 18.9814 126.118 18.9814C127.197 18.9814 128.145 19.1403 128.878 19.4552C129.61 19.77 130.19 20.2026 130.619 20.7528C131.046 21.303 131.349 21.9504 131.532 22.6889C131.711 23.4275 131.802 24.2219 131.802 25.0753C131.802 25.9286 131.711 26.7201 131.532 27.4616Z" fill="#FFA07A"/>
<path d="M162.607 16.5009C162.01 15.4152 161.121 14.5266 159.929 13.8321C158.741 13.1377 157.122 12.7935 155.077 12.7935C154.883 12.7935 154.559 12.8258 154.1 12.8876C153.644 12.9494 153.138 13.0936 152.585 13.3113C152.032 13.532 151.458 13.8704 150.864 14.3265C150.269 14.7855 149.722 15.4064 149.225 16.192V14.0381C149.225 13.6085 148.877 13.2613 148.448 13.2613H143.693C143.263 13.2613 142.916 13.6085 142.916 14.0381V36.1536C142.916 36.5832 143.263 36.9304 143.693 36.9304H148.489C148.919 36.9304 149.266 36.5832 149.266 36.1536V24.5986C149.266 22.9302 149.66 21.6149 150.449 20.6557C151.237 19.6935 152.267 19.1992 153.541 19.1668C154.842 19.1344 155.851 19.5699 156.569 20.4644C157.287 21.3619 157.646 22.6595 157.646 24.3602V36.1507C157.646 36.5803 157.993 36.9275 158.423 36.9275H163.219C163.649 36.9275 163.996 36.5803 163.996 36.1507V23.7453C163.996 22.5477 163.913 21.3119 163.749 20.0378C163.584 18.7637 163.201 17.5808 162.607 16.4951V16.5009Z" fill="#FFA07A"/>
<path d="M163.207 2.25977H59.4203C59.4203 2.25977 59.4085 2.25977 59.4027 2.25977H57.1222C55.2979 2.25977 53.7885 2.38923 52.6026 2.64228C51.4139 2.88945 50.4782 3.32493 49.8014 3.93991C49.1247 4.55488 48.6539 5.38171 48.392 6.41745C48.1272 7.45908 47.9977 8.76553 47.9977 10.3397V13.2704H43.8518C43.3251 13.2704 42.9455 13.7795 43.0956 14.2826L43.4751 15.5449L44.3226 18.3697C44.3844 18.5786 44.5285 18.7493 44.7139 18.8434C44.8257 18.9023 44.9493 18.9346 45.0817 18.9346H48.0006V36.1509C48.0006 36.5835 48.3567 36.9395 48.7892 36.9395H53.5619C54.0003 36.9395 54.3505 36.5835 54.3505 36.1509V18.9346H64.0576V18.9405H73.8913C74.7475 18.9405 75.4272 19.0435 75.9245 19.2495C76.4247 19.4525 76.6719 19.8703 76.6719 20.5L76.7131 22.2949H69.7424C68.5243 22.2949 67.4385 22.4921 66.4851 22.8834C65.5318 23.2777 64.7226 23.8132 64.0576 24.49C63.3956 25.1668 62.8836 25.973 62.5246 26.8999C62.1627 27.8297 61.9832 28.8301 61.9832 29.8982C61.9832 31.0958 62.1833 32.158 62.5834 33.0879C62.9866 34.0177 63.5309 34.8033 64.2224 35.4506C64.9139 36.095 65.7289 36.5835 66.6705 36.913C67.6092 37.2426 68.6214 37.4103 69.6983 37.4103C71.2725 37.4103 72.6555 37.0808 73.8472 36.4187C75.0359 35.7567 76.004 34.9239 76.7514 33.9147L76.7955 34.2442C76.9867 35.0652 77.3693 35.7184 77.9372 36.2039C78.5021 36.6924 79.1465 36.9366 79.8674 36.9366H84.0663C84.4047 36.9366 84.6813 36.6629 84.6813 36.3216V32.0227C84.6813 31.6843 84.4076 31.4077 84.0663 31.4077H82.6068V21.7712C82.6068 20.5736 82.4685 19.4555 82.192 18.4168C81.9154 17.3781 81.4446 16.4806 80.7825 15.7244C80.1205 14.9682 79.2407 14.3709 78.149 13.9295C77.2928 13.5853 76.2717 13.3734 75.0859 13.2999C74.8034 13.2822 74.5121 13.2704 74.212 13.2704C74.162 13.2704 74.112 13.2704 74.062 13.2704H64.0635H59.0025H54.3181V10.4368C54.3181 9.6159 54.5123 9.06566 54.8978 8.78318C55.2832 8.50071 55.8246 8.35653 56.5132 8.35653L58.1668 8.33593L58.667 8.3271C58.6906 8.3271 58.7112 8.33299 58.7318 8.33299H163.221C163.657 8.33299 164.01 7.97989 164.01 7.54441V3.04834C164.01 2.61286 163.657 2.25977 163.221 2.25977H163.207ZM76.7043 27.5796C76.7043 28.2416 76.5366 28.8566 76.207 29.4216C75.8745 29.9865 75.4537 30.4691 74.9417 30.8634C74.4298 31.2576 73.856 31.5637 73.2204 31.7843C72.5819 32.005 71.961 32.1139 71.3549 32.1139C70.9665 32.1139 70.5869 32.0756 70.2132 31.9962C69.8395 31.9168 69.5011 31.7843 69.1951 31.596C68.8891 31.4077 68.642 31.1547 68.4507 30.8398C68.2565 30.525 68.1594 30.1307 68.1594 29.6569C68.1594 28.8389 68.4242 28.1857 68.948 27.6973C69.4717 27.2088 70.3839 26.9675 71.6874 26.9675H76.7072V27.5825L76.7043 27.5796Z" fill="#FFA07A"/>
<path d="M15.1397 36.9215C17.2604 36.9215 18.9796 35.2023 18.9796 33.0816C18.9796 30.9609 17.2604 29.2417 15.1397 29.2417C13.019 29.2417 11.2998 30.9609 11.2998 33.0816C11.2998 35.2023 13.019 36.9215 15.1397 36.9215Z" fill="#FFA07A"/>
</g>
<defs>
<clipPath id="clip0_11_7726">
<rect width="164" height="39.2029" fill="white"/>
</clipPath>
</defs>
</svg>
