<svg width="88" height="107" viewBox="0 0 88 107" fill="none" xmlns="http://www.w3.org/2000/svg">
<g clip-path="url(#clip0_11_8114)">
<path fill-rule="evenodd" clip-rule="evenodd" d="M87.064 36.9074C87.5804 36.9074 88 36.4523 88 35.8972V35.8778C88 35.3226 87.5804 34.8676 87.064 34.8676H77.5039V0H57.1605L33.2796 34.8708H0.935999C0.429268 34.8708 0.0161379 35.3097 0 35.8487V35.9294C0.0161379 36.4717 0.432496 36.9074 0.935999 36.9074H31.882L29.7841 39.9704H0.935999C0.429268 39.9704 0.0161379 40.4093 0 40.9483V41.029C0.0161379 41.5712 0.432496 42.007 0.935999 42.007H28.3898L26.2919 45.0667H0.935999C0.429268 45.0667 0.0161379 45.5057 0 46.0447V46.1254C0.0161379 46.6676 0.432496 47.1033 0.935999 47.1033H24.8976L22.7996 50.1663H0.935999C0.429268 50.1663 0.0161379 50.6052 0 51.1443V51.2249C0.0161379 51.7672 0.432496 52.2029 0.935999 52.2029H21.4053L19.3784 55.1658H0.935999C0.429268 55.1658 0.0161379 55.6048 0 56.1438V56.2245C0.0161379 56.7667 0.432496 57.2024 0.935999 57.2024H17.9809L15.7474 60.4655C11.4385 66.8045 9.98291 68.4893 1.41045 68.3408V80.6217H37.0107L36.9623 68.3408C34.4447 68.3408 32.7955 68.1439 31.6819 67.2015C30.52 66.2622 30.5652 65.1197 31.8272 63.238L35.9423 57.2024H60.643V61.863C60.2363 67.3209 56.7247 67.9761 51.4541 68.2892V80.6217H86.7767V68.3053C81.5061 67.9761 77.9751 67.337 77.5685 61.863V57.2024H87.0608C87.5772 57.2024 87.9968 56.7473 87.9968 56.1922V56.1728C87.9968 55.6177 87.5772 55.1626 87.0608 55.1626H37.3302L39.3474 52.1997H87.0608C87.5772 52.1997 87.9968 51.7446 87.9968 51.1894V51.1701C87.9968 50.6149 87.5772 50.1598 87.0608 50.1598H40.7385L42.8235 47.0969H87.064C87.5804 47.0969 88 46.6418 88 46.0866V46.0673C88 45.5121 87.5804 45.057 87.064 45.057H44.2146L46.2996 41.9973H87.064C87.5804 41.9973 88 41.5422 88 40.9871V40.9677C88 40.4125 87.5804 39.9575 87.064 39.9575H47.6875L49.7725 36.8945H87.0608L87.064 36.9074ZM60.6495 20.9502V34.8708H51.1636L60.6495 20.9502Z" fill="#FFA07A"/>
<path fill-rule="evenodd" clip-rule="evenodd" d="M76.1092 91.9731C76.5546 90.3109 77.4196 89.0037 78.7074 88.058C79.9952 87.1123 81.5477 86.6411 83.3745 86.6411C85.2013 86.6411 86.4827 87.1123 87.2605 88.058C88.0384 89.0037 88.2062 90.3109 87.7608 91.9731C87.3154 93.6353 86.4504 94.9392 85.1626 95.8784C83.878 96.8209 82.3223 97.2889 80.4923 97.2889C78.6622 97.2889 77.3906 96.8177 76.616 95.872C75.8381 94.9263 75.6703 93.6256 76.1125 91.9731H76.1092ZM82.9646 88.171C82.2868 88.171 81.7123 88.4711 81.2443 89.0683C80.7763 89.6654 80.3632 90.6272 80.0081 91.9473C79.6467 93.2932 79.5402 94.2647 79.6854 94.8682C79.8306 95.4685 80.2438 95.7655 80.9151 95.7655C81.5864 95.7655 82.1739 95.4685 82.6386 94.8714C83.1034 94.2776 83.5133 93.3157 83.8683 91.9924C84.2266 90.653 84.3331 89.6847 84.1911 89.0812C84.0459 88.4776 83.6359 88.1742 82.9646 88.1742V88.171Z" fill="#FFA07A"/>
<path fill-rule="evenodd" clip-rule="evenodd" d="M69.528 96.9923L69.9088 95.5657H70.3607C70.7415 95.5657 70.9804 95.5463 71.0772 95.5044C71.174 95.4624 71.2354 95.385 71.2676 95.2688C71.287 95.1913 71.3031 95.1171 71.3096 95.0428C71.3161 94.9718 71.3193 94.904 71.3193 94.8363L71.2483 93.7615H68.5436L67.9723 94.7201C67.8787 94.8685 67.8109 94.9815 67.7722 95.0654C67.7302 95.1461 67.6979 95.2236 67.6818 95.2913C67.6592 95.3785 67.7012 95.4463 67.8077 95.4947C67.9174 95.5431 68.082 95.5657 68.3079 95.5657H68.805L68.4241 96.9923H63.9346L64.3154 95.5657H64.6866C64.9416 95.5657 65.174 95.485 65.3934 95.3236C65.6097 95.1622 65.8292 94.8976 66.0551 94.5361L70.7286 86.9448H74.3629L74.6889 94.507C74.7179 95.0041 74.7825 95.3043 74.8858 95.4108C74.989 95.514 75.1891 95.5689 75.4796 95.5689H76.0057L75.6249 96.9955H69.528V96.9923ZM71.1579 92.3187L71.0611 89.2751L69.3892 92.3187H71.1579Z" fill="#FFA07A"/>
<path fill-rule="evenodd" clip-rule="evenodd" d="M58.1347 95.5205H58.9222C59.6484 95.5205 60.2423 95.2494 60.7071 94.7007C61.1718 94.1552 61.5721 93.2418 61.9174 91.9605C62.2595 90.6791 62.3499 89.7625 62.1788 89.2138C62.0078 88.6684 61.5624 88.394 60.8329 88.394H60.0454L58.1347 95.5237V95.5205ZM61.2203 86.9448C63.231 86.9448 64.6092 87.358 65.3612 88.181C66.1133 89.004 66.2617 90.266 65.8066 91.9637C65.3516 93.6646 64.5253 94.9266 63.3279 95.7529C62.1337 96.5792 60.5328 96.9923 58.5284 96.9923H53.0674L53.4482 95.5657H53.9517C54.2842 95.5657 54.5101 95.527 54.636 95.4495C54.7619 95.372 54.8748 95.1461 54.9717 94.7782L54.991 94.7039L56.4596 89.2203C56.5629 88.8297 56.579 88.5877 56.5048 88.4973C56.4305 88.4069 56.2175 88.3617 55.8625 88.3617H55.3719L55.7527 86.9448H61.2138H61.2203Z" fill="#FFA07A"/>
<path fill-rule="evenodd" clip-rule="evenodd" d="M46.4287 96.9923L46.8095 95.5657H47.2614C47.6422 95.5657 47.8811 95.5463 47.9779 95.5044C48.0747 95.4624 48.136 95.385 48.1683 95.2688C48.1909 95.1913 48.2038 95.1171 48.2103 95.0428C48.2167 94.9718 48.22 94.904 48.2167 94.8363L48.1457 93.7615H45.441L44.8697 94.7201C44.7794 94.8685 44.7084 94.9815 44.6696 95.0654C44.6277 95.1461 44.5986 95.2236 44.5793 95.2913C44.5567 95.3785 44.5986 95.4463 44.7051 95.4947C44.8149 95.5431 44.9795 95.5657 45.2054 95.5657H45.7025L45.3216 96.9923H40.832L41.2129 95.5657H41.5841C41.839 95.5657 42.0714 95.485 42.2909 95.3236C42.5071 95.1622 42.7266 94.8976 42.9526 94.5361L47.6261 86.9448H51.2603L51.5896 94.507C51.6186 95.0041 51.6832 95.3043 51.7864 95.4108C51.8897 95.514 52.0898 95.5689 52.3803 95.5689H52.9064L52.5256 96.9955H46.4287V96.9923ZM48.0586 92.3187L47.9618 89.2751L46.2899 92.3187H48.0586Z" fill="#FFA07A"/>
<path fill-rule="evenodd" clip-rule="evenodd" d="M42.0937 93.2128C41.6935 94.5587 40.9899 95.5947 39.9861 96.3177C38.9823 97.0407 37.7365 97.4022 36.255 97.4022C34.5186 97.4022 33.3082 96.9439 32.6208 96.024C31.9333 95.1041 31.8171 93.7937 32.2754 92.0864C32.7079 90.4726 33.5374 89.1815 34.7639 88.21C35.9936 87.2385 37.4137 86.7544 39.0307 86.7544C39.573 86.7544 40.0636 86.8125 40.5025 86.9255C40.9447 87.0416 41.3449 87.2159 41.7032 87.4548L42.1098 86.8996H43.7398L42.6295 91.0374H40.8285C40.9124 90.0723 40.8285 89.3687 40.5896 88.933C40.3444 88.4973 39.9183 88.2778 39.3083 88.2778C38.6015 88.2778 38.0076 88.578 37.5267 89.1751C37.0458 89.7722 36.6294 90.7308 36.2744 92.0541C35.9097 93.4193 35.8096 94.4005 35.9807 95.0009C36.1517 95.6012 36.61 95.8981 37.3588 95.8981C38.0366 95.8981 38.6563 95.6561 39.2212 95.1719C39.786 94.6846 40.2056 94.0326 40.4799 93.2063H42.0937V93.2128Z" fill="#FFA07A"/>
<path fill-rule="evenodd" clip-rule="evenodd" d="M25.4296 96.9923L25.8105 95.5657H26.2624C26.6432 95.5657 26.882 95.5463 26.9789 95.5044C27.0757 95.4624 27.137 95.385 27.1693 95.2688C27.1887 95.1913 27.2048 95.1171 27.2113 95.0428C27.2177 94.9718 27.2209 94.904 27.2177 94.8363L27.1467 93.7615H24.442L23.8707 94.7201C23.7803 94.8685 23.7093 94.9815 23.6706 95.0654C23.6286 95.1461 23.5964 95.2236 23.5802 95.2913C23.5576 95.3785 23.5996 95.4463 23.7061 95.4947C23.8158 95.5431 23.9804 95.5657 24.2064 95.5657H24.7034L24.3226 96.9923H19.833L20.2139 95.5657H20.585C20.84 95.5657 21.0724 95.485 21.2919 95.3236C21.5081 95.1622 21.7276 94.8976 21.9535 94.5361L26.6271 86.9448H30.2613L30.5905 94.507C30.6196 95.0041 30.6841 95.3043 30.7874 95.4108C30.8907 95.514 31.0908 95.5689 31.3813 95.5689H31.9074L31.5233 96.9955H25.4264L25.4296 96.9923ZM27.0596 92.3187L26.9595 89.2751L25.2876 92.3187H27.0563H27.0596Z" fill="#FFA07A"/>
<path fill-rule="evenodd" clip-rule="evenodd" d="M15.6958 88.5165C15.1471 88.5165 14.6759 88.7037 14.2821 89.0748C13.8884 89.4492 13.5979 89.9915 13.4075 90.7015L13.3978 90.7435H11.9131L12.933 86.9414H23.5066L22.4866 90.7435H21.0149L21.0278 90.7015C21.2182 89.9947 21.215 89.4525 21.0213 89.0781C20.8277 88.7004 20.45 88.5132 19.8981 88.5132H19.4592L17.8002 94.6973C17.6969 95.0846 17.684 95.3234 17.7615 95.417C17.8389 95.5106 18.0519 95.5591 18.4102 95.5591H19.2526L18.8718 96.9856H12.2584L12.6393 95.5591H13.4236C13.7593 95.5591 13.9949 95.5203 14.1208 95.4396C14.2499 95.3557 14.3693 95.1104 14.479 94.6973L16.1348 88.5132H15.6958V88.5165Z" fill="#FFA07A"/>
<path fill-rule="evenodd" clip-rule="evenodd" d="M5.59663 96.9923L5.97748 95.5657H6.42934C6.8102 95.5657 7.04904 95.5463 7.14586 95.5044C7.24269 95.4624 7.30402 95.385 7.33629 95.2688C7.35889 95.1913 7.3718 95.1171 7.37825 95.0428C7.38471 94.9718 7.38793 94.904 7.38471 94.8363L7.3137 93.7615H4.60899L4.0377 94.7201C3.94733 94.8685 3.87633 94.9815 3.83759 95.0654C3.79564 95.1461 3.76659 95.2236 3.74722 95.2913C3.72463 95.3785 3.76659 95.4463 3.87633 95.4947C3.98606 95.5431 4.15067 95.5657 4.3766 95.5657H4.87365L4.49279 96.9923H0L0.380855 95.5657H0.752026C1.00701 95.5657 1.23939 95.485 1.45887 95.3236C1.67511 95.1622 1.89459 94.8976 2.12052 94.5361L6.79406 86.9448H10.4283L10.7575 94.507C10.7866 95.0041 10.8511 95.3043 10.9544 95.4108C11.0577 95.514 11.2578 95.5689 11.5483 95.5689H12.0744L11.6935 96.9955H5.59663V96.9923ZM7.22655 92.3187L7.12973 89.2751L5.45784 92.3187H7.22655Z" fill="#FFA07A"/>
<path fill-rule="evenodd" clip-rule="evenodd" d="M71.3745 85.0889H75.0668L74.5117 86.012H70.8193L71.3745 85.0889Z" fill="#FFA07A"/>
<path d="M30.2002 104.648C30.2002 103.231 31.3557 101.862 32.9727 101.862C34.2282 101.862 35.0771 102.75 35.0771 103.912C35.0771 105.329 33.9216 106.697 32.2981 106.697C31.0426 106.697 30.2002 105.81 30.2002 104.648ZM34.2185 103.96C34.2185 103.192 33.7247 102.618 32.8888 102.618C31.8075 102.618 31.0523 103.647 31.0523 104.603C31.0523 105.377 31.5461 105.945 32.382 105.945C33.4633 105.945 34.2185 104.916 34.2185 103.96Z" fill="#FFA07A"/>
<path d="M36.6588 101.943H37.4206L39.0021 105.248L39.8961 101.943H40.703L39.4475 106.62H38.76L37.1236 103.221L36.2167 106.62H35.4033L36.6588 101.943Z" fill="#FFA07A"/>
<path d="M41.9134 101.943H42.7429L41.6875 105.871H44.1469L43.9404 106.62H40.6611L41.9167 101.943H41.9134Z" fill="#FFA07A"/>
<path d="M46.0895 101.943H46.919L45.6635 106.62H44.834L46.0895 101.943Z" fill="#FFA07A"/>
<path d="M48.1618 101.943H48.9235L50.505 105.248L51.399 101.943H52.2059L50.9504 106.62H50.2629L48.6266 103.221L47.7196 106.62H46.9062L48.1618 101.943Z" fill="#FFA07A"/>
<path d="M53.4131 101.943H56.8473L56.6472 102.679H54.0361L53.7101 103.903H56.0275L55.8274 104.629H53.51L53.1775 105.884H55.8306L55.6305 106.62H52.1641L53.4196 101.943H53.4131Z" fill="#FFA07A"/>
</g>
<defs>
<clipPath id="clip0_11_8114">
<rect width="88" height="106.701" fill="white"/>
</clipPath>
</defs>
</svg>
