<svg width="88" height="64" viewBox="0 0 88 64" fill="none" xmlns="http://www.w3.org/2000/svg">
<g clip-path="url(#clip0_11_8102)">
<path d="M70.5694 51.0161C70.5694 57.9907 64.9165 63.648 57.9375 63.648C50.9585 63.648 45.3057 57.9952 45.3057 51.0161C45.3057 44.0371 50.9585 38.3843 57.9375 38.3843C64.9165 38.3843 70.5694 44.0371 70.5694 51.0161ZM67.5116 50.9544C67.5116 45.6761 63.2335 41.3979 57.9551 41.3979C52.6768 41.3979 48.3986 45.6761 48.3986 50.9544C48.3986 56.2328 52.6768 60.5109 57.9551 60.5109C63.2335 60.5109 67.5116 56.2328 67.5116 50.9544Z" fill="#FFA07A"/>
<path d="M50.7687 10.1337C50.9185 10.2835 50.4338 11.6802 51.2048 12.5614C51.7997 13.2443 58.739 15.9143 60.2767 16.6985C60.7393 16.9321 61.1094 16.4694 60.9023 17.615L51.196 21.7918C50.4558 22.2633 50.9317 24.0697 50.7687 24.2283C50.5968 24.4045 49.0371 23.8406 48.341 24.6645C47.8651 25.2241 46.9223 28.3655 46.442 29.3745L43.7235 34.362C43.2169 33.0799 39.7141 24.5896 39.2471 24.2988C38.7272 23.9816 37.2732 24.3957 37.1102 24.2327C36.9472 24.0697 37.3614 22.6157 37.0441 22.0958C36.6696 21.4834 28.2058 18.483 26.9854 17.4035C29.2368 15.2358 34.2243 14.544 36.4053 12.8257C37.0397 12.3234 36.3304 10.799 37.0838 10.3187C37.683 9.93541 38.7757 10.3408 39.2427 10.0588C39.7097 9.7768 43.0054 1.27332 43.728 0L48.0987 9.49922C48.504 10.4377 50.6145 9.97947 50.7687 10.1337ZM47.3232 12.2662C46.8033 11.9401 44.6796 5.80704 43.9438 4.84654C42.4943 6.30491 41.9083 10.1557 40.8597 11.4511C40.1371 12.3411 39.0797 12.2309 38.9431 12.4027C38.692 12.7156 39.0532 13.6012 38.8065 14.0109C38.4496 14.6013 32.3121 16.3637 31.3913 17.3991C32.7615 18.2979 37.1543 19.439 38.1544 20.2233C38.6259 20.5934 38.4012 21.5054 38.8638 21.8183C39.3264 22.1311 40.2737 21.8623 40.5645 22.1002C40.9919 22.4439 43.0582 29.5066 43.9438 29.5066C45.1995 28.7664 46.887 22.4087 47.2968 22.0694C47.6228 21.805 48.8521 22.1839 49.0107 22.0253C49.1605 21.8755 48.7992 20.7344 49.0636 20.3246C49.2662 20.0074 55.765 17.9102 56.0558 17.6106C56.6947 16.9497 55.8531 16.8483 55.4962 16.6236C54.4741 15.9848 49.275 14.3105 49.0547 14.0418C48.7904 13.7157 49.1693 12.4865 49.0107 12.3278C48.8609 12.1824 47.7682 12.5349 47.3232 12.2618V12.2662Z" fill="#FFA07A"/>
<path d="M87.3424 42.2837C83.8793 44.5263 84.9411 42.6229 82.8263 41.7462C80.143 40.6315 76.8782 41.9885 77.1734 45.1608C77.4334 47.9674 83.7559 48.8001 85.9809 50.9237C88.3733 53.2104 88.5496 56.9599 86.9987 59.7841C83.5885 65.9833 73.1244 64.1548 72.9922 56.8013C73.0935 56.6735 75.7812 55.8364 75.8869 55.9421C75.9574 56.017 76.0411 57.3961 76.3011 57.96C78.3763 62.4629 85.3421 60.8195 84.734 55.2724C84.408 52.294 79.9756 51.5274 77.7947 50.3025C66.5463 43.9932 81.4516 32.0883 87.3468 42.2837H87.3424Z" fill="#FFA07A"/>
<path d="M44.6005 63.0006C43.4065 62.8905 41.7851 63.3971 40.8511 62.5688L33.1407 44.9406L24.9985 62.5688C24.2979 63.4148 22.3153 62.8817 21.249 63.0006L32.9248 37.8911L44.5961 63.0006H44.6005Z" fill="#FFA07A"/>
<path d="M18.5484 39.7105C18.9185 40.2876 18.425 42.7065 18.6056 43.6141C14.019 39.9131 7.51146 40.8604 4.42729 45.9537C-0.185736 53.5672 6.91225 63.1281 15.5215 60.1364C16.7067 59.7223 17.4204 58.753 18.6056 58.5988C19.4031 62.3879 17.4645 63.1457 14.0014 63.4585C-4.79876 65.168 -4.23921 37.6749 13.107 38.3006C13.9133 38.3314 18.3192 39.3492 18.5484 39.7105Z" fill="#FFA07A"/>
</g>
<defs>
<clipPath id="clip0_11_8102">
<rect width="88" height="63.6483" fill="white"/>
</clipPath>
</defs>
</svg>
