<svg width="80" height="50" viewBox="0 0 80 50" fill="none" xmlns="http://www.w3.org/2000/svg">
<path d="M67.4636 47.0121C69.0453 47.0121 70.3275 45.7298 70.3275 44.1481C70.3275 42.5664 69.0453 41.2842 67.4636 41.2842C65.8818 41.2842 64.5996 42.5664 64.5996 44.1481C64.5996 45.7298 65.8818 47.0121 67.4636 47.0121Z" fill="#FFA07A"/>
<path d="M48.1046 32.3099C47.987 31.5127 48.4418 30.4698 48.9399 29.4477C49.3152 28.6349 49.7873 27.8635 50.1661 27.2755L50.3857 26.9331H47.8227C47.3384 27.3828 46.7331 28.2008 46.3042 29.0188C45.6937 30.2052 45.398 31.2688 45.5485 32.2909C45.7923 33.9477 47.0427 34.4371 48.1634 34.4371C49.6369 34.4371 50.5552 33.7419 51.0809 33.0467L51.1743 32.4742C50.6538 32.9446 50.1332 33.2715 49.4069 33.2715C48.6217 33.2715 48.1911 32.8824 48.1063 32.3117L48.1046 32.3099Z" fill="#FFA07A"/>
<path d="M51.7227 23.2371C50.1766 23.2371 48.8882 24.3508 48.6201 25.8209C48.921 25.916 49.2427 25.9679 49.5782 25.9679C51.1261 25.9679 52.4128 24.8558 52.6808 23.3841C52.3799 23.2872 52.0582 23.2354 51.7227 23.2354V23.2371Z" fill="#FFA07A"/>
<path d="M61.3435 33.2505C60.7347 33.2505 60.4234 33.0049 60.349 32.4947C60.2608 31.9015 60.6171 30.9815 61.2051 29.776C61.698 28.7384 62.177 27.9549 62.5921 27.3202L62.8636 26.9346H60.2954C59.8146 27.405 59.0571 28.5291 58.5141 29.776C58.2201 30.4505 57.9745 31.3083 57.9365 31.9845C57.1132 32.9253 56.0981 33.375 55.3319 33.375C54.6246 33.375 54.2597 33.0274 54.1784 32.4757C54.0919 31.8825 54.3098 31.106 54.7214 30.1652C55.2541 28.9061 55.8214 28.0086 56.3264 27.2856L56.5719 26.9346H54.0677C53.5644 27.3842 52.7637 28.4876 52.2397 29.5927C51.7485 30.6563 51.4545 31.5971 51.5894 32.5155C51.7555 33.6396 52.5181 34.4161 54.1092 34.4161C55.8975 34.4161 57.1911 33.4753 57.9693 32.6175H57.9883C58.0143 32.9236 58.0956 33.2107 58.2063 33.4355C58.5573 34.0893 59.2353 34.4161 60.0792 34.4161C61.5527 34.4161 62.4468 33.5583 62.8792 33.0257L62.9709 32.4532C62.4711 32.9236 61.9107 33.2505 61.34 33.2505H61.3435Z" fill="#FFA07A"/>
<path d="M47.2205 36.8151C44.9999 36.7546 42.7724 36.7719 40.5449 36.8912C41.2903 35.5595 42.8087 32.4171 43.4521 31.0422C44.1802 29.4753 45.2334 26.9331 45.2334 26.9331H42.3625C42.3625 26.9331 41.8143 28.5051 40.4671 30.0132C39.5487 30.9713 38.4765 31.7997 37.3108 32.4275C36.057 33.102 34.6786 33.5568 33.3573 33.5983C32.7019 33.6104 32.0637 33.5343 31.5345 33.3164C31.0036 33.102 30.5937 32.7613 30.3222 32.3185C30.0507 31.8775 29.9175 31.3189 29.9296 30.7102C29.94 30.1031 30.0922 29.4581 30.3274 28.8285C30.5764 28.1973 30.9206 27.5851 31.3062 26.9988C31.7196 26.4263 32.1658 25.8695 32.6794 25.3662C33.193 24.8664 33.7361 24.3891 34.3293 23.9826C34.6164 23.7647 34.9294 23.5901 35.2303 23.3946C35.5468 23.2286 35.8529 23.0384 36.1798 22.9C36.8197 22.587 37.489 22.3587 38.1583 22.2013C38.8293 22.0301 39.502 21.9834 40.1471 22.0111C40.7836 22.0595 41.3767 22.2152 41.8385 22.5023C42.3003 22.7876 42.634 23.1888 42.8243 23.6938L45.3908 22.7202C44.9999 21.6825 44.2078 20.7503 43.2636 20.1934C42.3193 19.6262 41.2903 19.3944 40.327 19.3374C39.3671 19.3097 38.435 19.4135 37.5651 19.6487C36.6934 19.8752 35.8616 20.1865 35.0868 20.5843C34.3033 20.9665 33.5752 21.4369 32.8939 21.9575C32.2038 22.4677 31.576 23.0522 30.9845 23.6696C30.3948 24.2888 29.8742 24.9753 29.3969 25.6913C28.9404 26.4246 28.5426 27.1977 28.2555 28.0313C27.9788 28.8683 27.7972 29.7572 27.8162 30.6825C27.8318 31.6008 28.0722 32.5659 28.6118 33.3735C29.1427 34.1846 29.959 34.7778 30.8168 35.0805C31.6798 35.3918 32.567 35.4333 33.4092 35.3762C35.1023 35.2275 36.6537 34.6014 38.0234 33.7609C38.8154 33.2645 39.5435 32.6835 40.2146 32.0505C39.5384 33.4755 38.8172 34.8747 38.0303 36.234C37.8556 36.5349 37.6757 36.8341 37.4959 37.1333C37.278 37.1558 37.0635 37.1731 36.8473 37.199C35.1179 37.3893 33.3902 37.6573 31.6729 38.0395C29.959 38.4252 28.252 38.9164 26.59 39.641C25.7616 40.0076 24.9419 40.4244 24.1585 40.9502C23.3785 41.4725 22.6262 42.0968 21.9897 42.8854C21.675 43.2711 21.3741 43.7294 21.1492 44.2448C20.9348 44.767 20.7394 45.3585 20.7463 46.0295C20.7463 46.3581 20.8016 46.7057 20.9088 47.0395C21.0299 47.3664 21.1873 47.6881 21.4052 47.9544C21.8306 48.4992 22.3806 48.8762 22.9254 49.12C24.0287 49.6008 25.1235 49.6441 26.1248 49.5455C27.1296 49.4383 28.0722 49.1754 28.9507 48.8209C29.8327 48.468 30.6577 48.034 31.4377 47.5497C32.2176 47.0741 32.9803 46.4965 33.6721 45.9016C36.0864 43.7847 37.93 41.2597 39.5297 38.6414C42.072 38.3629 44.6402 38.2315 47.2084 38.2038C53.9913 38.1502 60.8018 38.7884 67.4601 40.2013L67.6002 39.6116C60.9488 37.9375 54.102 37.0313 47.2223 36.8237L47.2205 36.8151ZM32.017 43.9767C31.4117 44.5007 30.7995 44.9573 30.1077 45.3602C29.4263 45.7649 28.7224 46.1177 28.0082 46.3893C27.2922 46.6625 26.5641 46.8458 25.8637 46.9133C25.1702 46.9842 24.4905 46.9081 24.0253 46.6902C23.7901 46.583 23.6223 46.4463 23.522 46.3149C23.42 46.1835 23.3491 46.0624 23.2989 45.8722C23.2591 45.6854 23.254 45.4208 23.3698 45.1527C23.4719 44.8795 23.6379 44.6114 23.8506 44.3243C24.6911 43.1898 26.0487 42.2974 27.4928 41.597C28.9473 40.8948 30.5262 40.3691 32.1381 39.9436C33.4836 39.5891 34.855 39.3107 36.2386 39.0824C35.0003 40.9 33.615 42.5897 32.0188 43.9784L32.017 43.9767Z" fill="#FFA07A"/>
<path d="M73.8294 44.2741C73.7291 44.1721 71.3598 41.6402 72.0516 29.8662C72.4718 22.6994 69.9953 17.3623 67.8421 14.1473C65.5022 10.6538 63.0291 8.83447 63.0049 8.81718L63.4718 8.17383C63.5773 8.24992 66.0677 10.0762 68.4855 13.6769C70.7147 16.9974 73.2812 22.5091 72.8471 29.9129C72.1847 41.1905 74.3777 43.6948 74.4002 43.719L73.8312 44.2741H73.8294Z" fill="#FFA07A"/>
<path d="M72.6018 31.8344L72.0225 31.2879C76.8095 26.2085 77.0413 14.5971 77.043 14.4795L77.8386 14.4916C77.8316 14.981 77.6016 26.5285 72.6018 31.8344Z" fill="#FFA07A"/>
<path d="M71.844 25.7969C70.1249 22.1115 66.8978 19.6557 62.2508 18.4987C58.7504 17.6253 55.717 17.8605 55.6858 17.8623L55.6201 17.0685C55.7481 17.0581 58.7954 16.8194 62.4203 17.7187C67.2558 18.9172 70.7631 21.5944 72.5652 25.4597L71.844 25.7952V25.7969Z" fill="#FFA07A"/>
<path d="M64.2505 14.4033C61.9884 14.4033 59.2351 13.4227 56.6928 12.5182C56.1809 12.3367 55.6967 12.1637 55.2263 12.0029L55.0066 11.9285L54.9634 11.7002C54.9547 11.6501 54.7438 10.481 55.4234 9.54361C55.8489 8.95733 56.5112 8.6028 57.3933 8.48865C57.7426 8.44369 57.8204 8.3503 57.836 8.32263C57.9415 8.13239 57.6613 7.52708 57.4365 7.04111C56.8883 5.85472 56.136 4.23077 57.6112 2.99423C59.7539 1.19734 62.4467 3.51998 63.8199 4.74788C63.5743 4.03362 63.3494 3.07897 63.4878 2.00326C63.6071 1.07282 63.9496 0.455409 64.5047 0.168323C65.2899 -0.238096 66.1598 0.216747 66.1961 0.235771L66.2912 0.287654L66.3483 0.381044C66.5576 0.723472 71.4225 8.83281 67.6886 13.0665C66.8325 14.0384 65.6323 14.4033 64.2505 14.4033ZM55.7243 11.3336C56.1238 11.4719 56.532 11.6172 56.9592 11.7694C60.6256 13.0751 65.1896 14.6991 67.0919 12.5407C70.2274 8.98327 66.2774 1.84588 65.7291 0.898146C65.5579 0.830698 65.1757 0.714825 64.8662 0.877392C64.4822 1.07801 64.3335 1.65564 64.2764 2.10529C64.1069 3.43004 64.5929 4.59223 64.8558 5.21655C65.0305 5.63508 65.1567 5.936 64.8835 6.16083C64.6137 6.38392 64.3024 6.17466 64.1519 6.07436C63.9617 5.94638 63.7109 5.72155 63.3927 5.43619C62.1336 4.30687 59.7903 2.20387 58.1213 3.60472C57.1857 4.38988 57.5454 5.38604 58.1577 6.70733C58.5191 7.48904 58.8321 8.16352 58.5312 8.70656C58.3566 9.02305 58.0176 9.20983 57.4953 9.27728C56.8416 9.36202 56.3625 9.6076 56.0702 10.0054C55.7382 10.4602 55.7105 11.0257 55.7243 11.3318V11.3336Z" fill="#FFA07A"/>
<path d="M75.2683 26.5716L75.078 26.1583C75.0227 26.0389 73.7446 23.1992 74.3759 19.1782C74.8082 16.4232 76.9234 14.0816 77.0133 13.983L77.2468 13.7271L77.5321 13.9242C77.565 13.9467 80.8976 16.3091 79.7648 21.1152C79.0506 24.1504 75.7906 26.2413 75.6522 26.3277L75.2683 26.5699V26.5716ZM77.3592 14.8062C76.8058 15.4911 75.4724 17.3122 75.1611 19.301C74.7097 22.1788 75.3115 24.4461 75.628 25.3731C76.4927 24.7315 78.4902 23.0539 78.99 20.9319C79.815 17.4246 78.07 15.4427 77.3574 14.8045L77.3592 14.8062Z" fill="#FFA07A"/>
<path d="M63.1554 21.418C62.2994 21.418 61.3689 21.316 60.4039 21.0479C57.7163 20.3025 55.6341 17.9315 55.5459 17.8312L55.3193 17.57L55.5476 17.3089C55.5753 17.2778 58.3026 14.2409 62.9479 15.9167C65.8412 16.9613 67.9045 19.6782 67.9909 19.7941L68.2746 20.1711L67.856 20.3873C67.7488 20.4426 65.8066 21.4198 63.1571 21.4198L63.1554 21.418ZM56.4037 17.5821C57.0194 18.2099 58.6762 19.7439 60.6166 20.2818C63.4615 21.0704 66.0176 20.2783 67.0311 19.8788C66.3618 19.1058 64.7171 17.4023 62.6781 16.6655C59.2884 15.4428 57.1197 16.9492 56.4037 17.5821Z" fill="#FFA07A"/>
<path d="M67.152 13.0908C66.6919 13.0908 65.7857 12.8539 63.8366 12.1379C62.268 11.562 60.7167 10.9221 60.7012 10.9152L61.0055 10.1802C63.5945 11.2507 66.5501 12.3143 67.1243 12.2953L67.3924 12.0099C67.5169 12.1258 67.8922 12.4821 67.6535 12.8522C67.5653 12.9888 67.4546 13.0908 67.152 13.0908ZM67.1122 12.3074C67.0655 12.3299 67.0015 12.3766 66.9635 12.4578C66.9617 12.463 66.9583 12.4682 66.9565 12.4734L67.1122 12.3091V12.3074Z" fill="#FFA07A"/>
<path d="M67.7868 12.8294L66.993 12.7758L67.3908 12.8034L66.993 12.7775C66.9948 12.7481 67.1781 9.7164 65.7461 6.70717L66.4638 6.36475C67.9892 9.5694 67.7955 12.698 67.7868 12.8311V12.8294Z" fill="#FFA07A"/>
<path d="M7.44696 13.8344C7.52825 13.7756 7.60607 13.7393 7.67871 13.7255C7.75134 13.7116 7.80842 13.703 7.84992 13.703C7.9485 13.703 8.04016 13.7237 8.12144 13.7635C8.20273 13.805 8.28747 13.8915 8.37567 14.0264L9.35453 15.5033C9.38393 15.55 9.41161 15.6019 9.43755 15.6607C9.46349 15.7195 9.47732 15.7662 9.47732 15.8008C9.47732 15.9357 9.43582 16.0446 9.35108 16.1294C9.26633 16.2141 9.17467 16.2885 9.07609 16.3525C8.59877 16.6845 8.07475 16.9509 7.50576 17.1532C6.93678 17.3538 6.33493 17.4541 5.70023 17.4541C5.17621 17.4541 4.66948 17.3867 4.18351 17.2535C3.69581 17.1204 3.2427 16.9284 2.82417 16.6811C2.40392 16.4338 2.01998 16.1363 1.67064 15.7887C1.32129 15.4411 1.02383 15.0554 0.778247 14.63C0.532667 14.2045 0.342429 13.7462 0.205803 13.2533C0.0691776 12.7604 0 12.2468 0 11.7107C0 11.1745 0.0691776 10.6592 0.205803 10.1628C0.342429 9.6682 0.534397 9.20817 0.778247 8.78619C1.02383 8.36421 1.32129 7.97854 1.67064 7.63092C2.01998 7.28331 2.40565 6.98757 2.82417 6.74372C3.24443 6.49814 3.69754 6.30963 4.18351 6.17474C4.66948 6.04157 5.17621 5.97412 5.70023 5.97412C6.33493 5.97412 6.92294 6.05886 7.46253 6.22835C8.00211 6.39783 8.50711 6.6486 8.97925 6.98065L8.9533 6.95471C9.08128 7.03081 9.18332 7.11901 9.25942 7.22105C9.33551 7.32308 9.37356 7.44933 9.37356 7.60152C9.37356 7.70702 9.33897 7.81424 9.26806 7.92493L8.48981 9.24622C8.32725 9.53158 8.12836 9.67512 7.89489 9.67512C7.843 9.67512 7.77902 9.66128 7.70292 9.63534C7.62683 9.6094 7.54208 9.56444 7.44869 9.50045C7.19274 9.33096 6.91603 9.19261 6.62202 9.08538C6.32802 8.97816 6.01499 8.92281 5.68121 8.92281C5.31457 8.92281 4.9756 8.99718 4.66603 9.14591C4.35646 9.29464 4.09358 9.49699 3.87394 9.75294C3.65603 10.0089 3.48482 10.3064 3.36203 10.6453C3.23924 10.9843 3.17871 11.3388 3.17871 11.7124C3.17871 12.086 3.23924 12.4578 3.36203 12.7916C3.48482 13.1271 3.6543 13.4176 3.87394 13.6615C4.09185 13.9071 4.35646 14.1008 4.66603 14.2426C4.9756 14.3861 5.31284 14.457 5.68121 14.457C6.01326 14.457 6.32456 14.3982 6.61683 14.2823C6.90738 14.1665 7.18582 14.0177 7.44696 13.8362V13.8344Z" fill="#FFA07A"/>
<path d="M11.1377 3.51664C11.1377 3.32986 11.1844 3.17249 11.2778 3.04451C11.3712 2.91653 11.532 2.85254 11.7586 2.85254H13.9013C13.9601 2.85254 14.0207 2.8681 14.0847 2.90096C14.1486 2.93382 14.2092 2.97879 14.2645 3.03586C14.3199 3.09466 14.3666 3.16384 14.4046 3.24512C14.4427 3.32641 14.4617 3.41807 14.4617 3.51664V16.5808C14.4617 16.8022 14.3994 16.9699 14.2732 17.0841C14.1469 17.1982 13.9861 17.2553 13.7872 17.2553H11.7586C11.5303 17.2553 11.3712 17.1982 11.2778 17.0841C11.1844 16.9699 11.1377 16.8022 11.1377 16.5808V3.51664Z" fill="#FFA07A"/>
<path d="M26.8688 17.1065C26.7927 17.1705 26.7131 17.212 26.6284 17.2293C26.5436 17.2466 26.4641 17.2552 26.388 17.2552H25.0684C24.9629 17.2552 24.873 17.2362 24.7969 17.1981C24.7208 17.1601 24.6568 17.1099 24.6049 17.0459C24.553 16.9819 24.5081 16.9093 24.4735 16.828C24.4389 16.7467 24.4095 16.662 24.3853 16.5755L24.202 15.7212C24.1138 15.901 23.9685 16.0913 23.7644 16.2919C23.5603 16.4925 23.3078 16.6776 23.0086 16.8453C22.7077 17.0131 22.3636 17.1532 21.9727 17.2638C21.5819 17.3745 21.1564 17.4299 20.6964 17.4299C20.0323 17.4299 19.4425 17.3019 18.9306 17.0459C18.417 16.79 17.9846 16.4389 17.6318 15.9962C17.279 15.5534 17.0127 15.0363 16.8311 14.4431C16.6512 13.8517 16.5596 13.2204 16.5596 12.5494V6.82149C16.5596 6.60013 16.608 6.43237 16.7031 6.31823C16.8 6.20408 16.9522 6.14701 17.1614 6.14701H19.1814C19.4322 6.14701 19.6034 6.19025 19.6968 6.27326C19.7902 6.35801 19.8369 6.5223 19.8369 6.76788V12.4664C19.8369 12.7172 19.8853 12.9558 19.9804 13.1806C20.0772 13.4055 20.207 13.6044 20.3695 13.7756C20.5321 13.9485 20.7241 14.0834 20.942 14.182C21.1599 14.2806 21.3916 14.3307 21.6372 14.3307C21.8465 14.3307 22.0748 14.2961 22.3186 14.2252C22.5642 14.156 22.7907 14.0454 23 13.8966C23.2093 13.7479 23.3857 13.5559 23.524 13.3225C23.6641 13.089 23.7333 12.8088 23.7333 12.4819V6.79209C23.7333 6.69352 23.7523 6.59321 23.7904 6.49463C23.8284 6.39605 23.8855 6.31996 23.9616 6.26634C24.0377 6.21965 24.1086 6.18679 24.176 6.1695C24.2435 6.1522 24.3196 6.14355 24.4078 6.14355H26.3845C26.6353 6.14355 26.8169 6.20409 26.9276 6.32688C27.0382 6.44967 27.0936 6.61223 27.0936 6.81631V16.6032C27.0936 16.7139 27.0694 16.8159 27.0192 16.9093C26.9691 17.0027 26.9016 17.0753 26.8134 17.1272L26.8653 17.1013L26.8688 17.1065Z" fill="#FFA07A"/>
<path d="M32.2987 16.5808C32.2468 16.6915 32.2018 16.7901 32.1672 16.8731C32.1327 16.9578 32.0929 17.027 32.0496 17.0824C32.0064 17.1377 31.9511 17.1792 31.8871 17.2086C31.8231 17.238 31.7349 17.2518 31.6242 17.2518H29.893C29.4261 17.2518 29.1943 17.027 29.1943 16.5791V3.51664C29.1943 3.41807 29.2134 3.32641 29.2514 3.24512C29.2895 3.16384 29.3396 3.09293 29.4001 3.03586C29.4607 2.97706 29.5316 2.93209 29.6094 2.90096C29.689 2.86983 29.7651 2.85254 29.8411 2.85254H31.8265C32.0479 2.85254 32.2226 2.91653 32.3506 3.04451C32.4785 3.17249 32.5425 3.32986 32.5425 3.51664V7.15365C32.7051 6.97898 32.8798 6.81814 33.0665 6.67287C33.2533 6.5276 33.4557 6.40308 33.6736 6.30104C33.8915 6.199 34.1319 6.11945 34.3948 6.06065C34.6576 6.00185 34.9482 5.97245 35.2699 5.97245C36.0619 5.97245 36.7935 6.11945 37.4611 6.41345C38.1286 6.70746 38.7028 7.11215 39.1836 7.62925C39.6644 8.14462 40.0414 8.75166 40.3112 9.44862C40.5827 10.1456 40.7176 10.8996 40.7176 11.709C40.7176 12.5184 40.5827 13.2655 40.3112 13.9659C40.0396 14.6663 39.6644 15.2734 39.1836 15.7887C38.7028 16.3041 38.1286 16.7105 37.4611 17.008C36.7935 17.3055 36.0637 17.4542 35.2699 17.4542C34.9724 17.4542 34.6888 17.4161 34.4172 17.34C34.1457 17.264 33.8915 17.1654 33.6528 17.0426C33.4142 16.9198 33.1945 16.7814 32.9922 16.6275C32.7916 16.4736 32.6117 16.3162 32.4543 16.1588L32.2969 16.5791L32.2987 16.5808ZM37.5717 11.709C37.5717 11.3354 37.5112 10.9809 37.3919 10.6419C37.2725 10.3047 37.1013 10.0072 36.88 9.74954C36.6586 9.49358 36.3923 9.29124 36.0844 9.14251C35.7748 8.99378 35.429 8.91941 35.0433 8.91941C34.6576 8.91941 34.2979 8.99378 33.9641 9.14251C33.6286 9.29124 33.3381 9.49358 33.0942 9.74954C32.8486 10.0055 32.6549 10.303 32.5131 10.6419C32.3696 10.9809 32.2987 11.3354 32.2987 11.709V11.8318C32.316 12.1984 32.399 12.5426 32.5477 12.8643C32.6964 13.1842 32.8936 13.4626 33.1375 13.6996C33.383 13.9348 33.6684 14.1216 33.9953 14.2547C34.3221 14.3896 34.6715 14.4553 35.045 14.4553C35.4186 14.4553 35.7766 14.3844 36.0861 14.2409C36.3957 14.0974 36.6603 13.9037 36.8817 13.6598C37.1031 13.4142 37.2743 13.1254 37.3936 12.7899C37.5129 12.4544 37.5735 12.0947 37.5735 11.7107L37.5717 11.709Z" fill="#FFA07A"/>
<path d="M51.7914 15.925C51.2778 16.3972 50.7019 16.7656 50.0603 17.0319C49.4186 17.2965 48.7407 17.4297 48.023 17.4297C47.224 17.4297 46.4699 17.2844 45.7574 16.9921C45.0466 16.7016 44.4223 16.2969 43.8862 15.7815C43.35 15.2661 42.9246 14.6574 42.6098 13.9587C42.2951 13.26 42.1377 12.499 42.1377 11.6758C42.1377 11.1622 42.2 10.6658 42.3262 10.185C42.4507 9.70426 42.6289 9.25287 42.8589 8.83435C43.0889 8.4141 43.3691 8.02843 43.6976 7.67562C44.0262 7.32282 44.3963 7.0219 44.8045 6.77113C45.2126 6.52036 45.6554 6.32493 46.1344 6.18485C46.6118 6.04476 47.1168 5.97559 47.6477 5.97559C48.1319 5.97559 48.6006 6.03958 49.0555 6.16755C49.5103 6.29553 49.9375 6.47712 50.337 6.7106C50.7365 6.94407 51.1014 7.22424 51.4352 7.54938C51.7672 7.87624 52.0526 8.2325 52.2912 8.6199C52.5299 9.00729 52.7149 9.42063 52.8464 9.86164C52.9778 10.3026 53.0435 10.7558 53.0435 11.221C53.0435 11.5236 53.0383 11.7727 53.0297 11.9646C53.0211 12.1566 52.9761 12.3105 52.8948 12.4229C52.8135 12.5371 52.6769 12.6149 52.4884 12.6581C52.2981 12.7014 52.0197 12.7239 51.6531 12.7239H45.3562C45.415 13.0974 45.5326 13.4087 45.7107 13.6595C45.8888 13.9103 46.0947 14.1091 46.3264 14.2579C46.5599 14.4066 46.8072 14.5121 47.0701 14.5778C47.3329 14.6418 47.5802 14.6747 47.8137 14.6747C48.023 14.6747 48.2392 14.6522 48.4605 14.6089C48.6819 14.5657 48.8963 14.5069 49.1039 14.4343C49.3114 14.3616 49.4999 14.2769 49.6729 14.18C49.8441 14.0832 49.9842 13.9829 50.0879 13.8791C50.1813 13.803 50.2609 13.746 50.3283 13.7079C50.3958 13.6699 50.4667 13.6508 50.5428 13.6508C50.6189 13.6508 50.695 13.6768 50.7745 13.7304C50.8523 13.7823 50.9423 13.8584 51.0408 13.9569L51.9678 15.0067C52.0318 15.0828 52.0733 15.1503 52.0906 15.2125C52.1079 15.273 52.1166 15.337 52.1166 15.401C52.1166 15.5169 52.0837 15.6189 52.0197 15.702C51.9557 15.7867 51.8796 15.8611 51.7914 15.925ZM47.5854 8.64065C47.3571 8.64065 47.1375 8.68562 46.9248 8.77555C46.7121 8.86548 46.5114 8.98654 46.3264 9.13873C46.1396 9.29092 45.9719 9.46213 45.8231 9.6541C45.6744 9.84607 45.5533 10.0415 45.4599 10.2404H49.9288C49.806 10.0121 49.6746 9.80283 49.531 9.61087C49.3875 9.4189 49.2249 9.24941 49.0416 9.10414C48.8583 8.95887 48.6473 8.84472 48.4121 8.76344C48.1752 8.68216 47.9002 8.64065 47.5854 8.64065Z" fill="#FFA07A"/>
<path d="M11.9362 31.0213C11.8186 31.1389 11.6854 31.2548 11.5367 31.3689C11.3879 31.4831 11.2254 31.5868 11.049 31.6768C10.8743 31.7684 10.6858 31.8411 10.4834 31.8981C10.2828 31.9552 10.0684 31.9829 9.84354 31.9829C9.2538 31.9829 8.71249 31.8722 8.21614 31.6508C7.71979 31.4294 7.29435 31.1285 6.93635 30.7446C6.57836 30.3607 6.29992 29.9093 6.09757 29.3904C5.89523 28.8716 5.79492 28.3113 5.79492 27.7146C5.79492 27.118 5.89523 26.5524 6.09757 26.0353C6.29819 25.5182 6.57836 25.0668 6.93635 24.6846C7.29435 24.3007 7.71979 23.9998 8.21614 23.7819C8.71249 23.564 9.2538 23.4533 9.84354 23.4533C10.0822 23.4533 10.3001 23.474 10.4973 23.5155C10.6944 23.557 10.8743 23.6158 11.0369 23.6937C11.1994 23.7715 11.3481 23.8649 11.4848 23.9738C11.6214 24.0828 11.7494 24.2004 11.8722 24.3318V21.6235C11.8722 21.4852 11.9137 21.3676 11.9984 21.2724C12.0832 21.1773 12.2094 21.1289 12.3789 21.1289H13.8403C13.8973 21.1289 13.9561 21.141 14.0184 21.1652C14.0807 21.1894 14.1377 21.2223 14.1913 21.2655C14.2432 21.3088 14.2865 21.3607 14.3176 21.4212C14.3505 21.4817 14.366 21.5492 14.366 21.6218V31.3343C14.366 31.6681 14.1913 31.8341 13.8403 31.8341H12.5674C12.4809 31.8341 12.4135 31.8238 12.3668 31.8013C12.3184 31.7788 12.2786 31.7477 12.2475 31.7079C12.2146 31.6664 12.1852 31.6145 12.1593 31.5522C12.1333 31.49 12.1005 31.4173 12.0624 31.3343L11.9396 31.023L11.9362 31.0213ZM8.13485 27.7146C8.13485 28 8.17982 28.268 8.26802 28.5171C8.35622 28.7661 8.4842 28.9823 8.6485 29.1639C8.81279 29.3455 9.01168 29.489 9.24342 29.5962C9.47517 29.7017 9.73112 29.7553 10.013 29.7553C10.2949 29.7553 10.5509 29.7052 10.7965 29.6066C11.042 29.5063 11.2548 29.3697 11.4364 29.1933C11.6179 29.0169 11.7649 28.8111 11.8756 28.5724C11.9863 28.3338 12.0486 28.0795 12.0607 27.8063V27.7146C12.0607 27.4379 12.0088 27.1733 11.905 26.9225C11.8013 26.6718 11.6577 26.4504 11.4727 26.2602C11.2893 26.0699 11.0714 25.9195 10.8224 25.8088C10.5734 25.6981 10.3036 25.6427 10.013 25.6427C9.72248 25.6427 9.47517 25.6981 9.24342 25.8088C9.01168 25.9195 8.81279 26.0699 8.6485 26.2602C8.4842 26.4504 8.35795 26.6718 8.26802 26.9225C8.17982 27.1733 8.13485 27.4379 8.13485 27.7146Z" fill="#FFA07A"/>
<path d="M24.5858 31.3534C24.5858 31.4278 24.5719 31.497 24.546 31.5644C24.52 31.6319 24.4768 31.6837 24.4163 31.7235C24.3678 31.7719 24.3125 31.8014 24.2468 31.8152C24.1811 31.829 24.1257 31.8342 24.0773 31.8342H22.7975C22.7059 31.8342 22.6332 31.8221 22.5761 31.7979C22.5191 31.7737 22.4741 31.7408 22.4395 31.6976C22.4049 31.6543 22.3755 31.6007 22.3513 31.5385C22.3271 31.4762 22.3029 31.407 22.277 31.3344L22.1922 31.0421C22.0746 31.1597 21.9414 31.2739 21.7927 31.3863C21.644 31.4987 21.478 31.599 21.2998 31.6889C21.12 31.7771 20.928 31.8498 20.7222 31.9034C20.5164 31.957 20.3037 31.9847 20.0823 31.9847C19.688 31.9847 19.311 31.9345 18.9495 31.8359C18.5881 31.7356 18.2508 31.5938 17.9361 31.4105C17.6213 31.2272 17.3377 31.0058 17.0817 30.7481C16.8258 30.4904 16.6061 30.2033 16.4228 29.8869C16.2395 29.5704 16.0977 29.2297 15.9974 28.863C15.8971 28.4964 15.8486 28.1142 15.8486 27.7164C15.8486 27.1146 15.9593 26.5542 16.1807 26.0371C16.4021 25.52 16.703 25.0686 17.0835 24.6864C17.4639 24.3025 17.9136 24.0016 18.429 23.7837C18.9443 23.5658 19.496 23.4551 20.0858 23.4551C20.3538 23.4551 20.6046 23.4862 20.8363 23.5467C21.0681 23.6073 21.2808 23.6903 21.4728 23.794C21.6647 23.8978 21.8394 24.0223 21.9951 24.1676C22.1507 24.3129 22.2873 24.4703 22.4049 24.638L22.5934 24.0465C22.6367 23.9376 22.673 23.8511 22.7007 23.7837C22.7283 23.7162 22.7595 23.6661 22.7923 23.6349C22.8252 23.6021 22.865 23.5813 22.9117 23.5692C22.9584 23.5571 23.0258 23.5537 23.1123 23.5537H24.0808C24.1292 23.5537 24.1845 23.5606 24.2502 23.5727C24.316 23.5865 24.3713 23.6159 24.4197 23.6643C24.4803 23.7128 24.5235 23.7664 24.5494 23.8269C24.5754 23.8874 24.5892 23.9566 24.5892 24.0344V31.3569L24.5858 31.3534ZM18.1868 27.7147C18.1868 28 18.2318 28.2681 18.32 28.5171C18.4082 28.7662 18.5362 28.9824 18.7005 29.164C18.8648 29.3455 19.0637 29.4891 19.2954 29.5963C19.5271 29.7018 19.7831 29.7554 20.065 29.7554C20.3469 29.7554 20.6253 29.7018 20.8744 29.5963C21.1234 29.4908 21.3396 29.3455 21.5247 29.164C21.708 28.9824 21.8532 28.7662 21.957 28.5171C22.0608 28.2681 22.1127 28 22.1127 27.7147C22.1127 27.4293 22.0608 27.1734 21.957 26.9226C21.8532 26.6718 21.7097 26.4505 21.5247 26.2602C21.3413 26.07 21.1234 25.9195 20.8744 25.8088C20.6253 25.6982 20.3555 25.6428 20.065 25.6428C19.7745 25.6428 19.5271 25.6982 19.2954 25.8088C19.0637 25.9195 18.8648 26.07 18.7005 26.2602C18.5362 26.4505 18.4099 26.6718 18.32 26.9226C18.2318 27.1734 18.1868 27.438 18.1868 27.7147Z" fill="#FFA07A"/>
</svg>
