<svg width="164" height="22" viewBox="0 0 164 22" fill="none" xmlns="http://www.w3.org/2000/svg">
<g clip-path="url(#clip0_11_8135)">
<path d="M60.3872 14.4239C60.3872 21.4402 52.4274 21.4028 45.7481 21.4028C39.0687 21.4028 39.0706 21.4402 31.0771 21.4402V16.0226H50.8905C52.4986 16.0226 53.077 15.0229 53.077 14.4239C53.077 13.7762 52.2664 12.8327 51.1151 12.8327C49.9639 12.8327 48.3408 12.8327 45.7481 12.8327C39.0874 12.8252 31.0752 14.1094 31.0752 7.05563C31.0752 0.0018717 39.1043 0 45.7481 0H59.4026V5.38018H40.6075C38.9058 5.38018 38.421 6.54645 38.421 7.065C38.421 7.58354 38.9321 8.74981 40.6075 8.74981H45.7481C52.4162 8.73109 60.3872 7.40758 60.3872 14.4239Z" fill="#FFA07A"/>
<path d="M163.989 20.0493C162.746 20.4705 161.029 20.7981 158.843 21.0677C156.784 21.3203 154.713 21.451 152.639 21.4589C146.551 21.4589 142.01 20.5148 139.016 18.6266C136.022 16.7383 134.525 14.1094 134.523 10.7398C134.523 7.37013 136.031 4.7412 139.046 2.85295C142.061 0.964711 146.596 0.0212142 152.65 0.0224622C157.038 0.0224622 160.62 0.467378 163.396 1.35721V7.16047C162.127 6.38895 160.741 5.82937 159.292 5.50373C157.39 5.05509 155.443 4.8215 153.489 4.80734C150.226 4.80734 142.843 6.12898 142.843 10.7192C142.843 15.3094 150.26 16.6291 153.513 16.6291C155.597 16.618 157.672 16.375 159.702 15.9047C161.821 15.4236 162.697 14.9518 163.972 14.1169L164.006 19.9707L163.989 20.0493Z" fill="#FFA07A"/>
<path d="M28.3012 5.16522H7.70897V8.14734H24.4242V13.2916H7.71833V16.0229H28.3105V21.4218H0V0.019043H28.3012V5.16522Z" fill="#FFA07A"/>
<path d="M85.2387 21.4215L83.2113 17.597H70.1072L68.0761 21.4196H60.3877L72.5764 0.0224609H80.7347L92.9571 21.4215H85.2387ZM72.1458 13.7462H81.1727L76.6555 5.16489L72.1458 13.7462Z" fill="#FFA07A"/>
<path d="M122.754 0.019043H131.773V21.4593H124.031L124.055 9.74605L117.593 18.8871H109.917L103.448 9.73482V21.4668H95.7051V0.022787H104.749L113.751 13.1044L122.754 0.019043Z" fill="#FFA07A"/>
</g>
<defs>
<clipPath id="clip0_11_8135">
<rect width="164" height="21.4589" fill="white"/>
</clipPath>
</defs>
</svg>
