<svg width="80" height="62" viewBox="0 0 80 62" fill="none" xmlns="http://www.w3.org/2000/svg">
<g clip-path="url(#clip0_11_8165)">
<path d="M29.9378 22.1009C29.971 22.0428 30.0041 21.9846 30.0373 21.9265C32.5788 17.4507 31.5423 14.2122 31.5381 14.208C21.4925 18.5177 24.6103 29.1883 27.0232 33.2696C27.0108 33.1451 26.4469 27.5441 29.5605 22.7154C29.6932 22.5078 29.8176 22.3043 29.9378 22.1009ZM36.5381 6.55179C36.5381 5.65912 37.1559 5.04048 38.0017 5.04048C38.893 5.04048 39.3615 5.60099 39.3615 6.47706V8.74818C39.3615 10.3508 40.1617 10.928 41.3723 10.928C41.961 10.928 42.2803 10.8532 42.3549 10.8242V8.91841C42.3259 8.91841 42.2056 8.93502 42.1144 8.93502C41.7206 8.93502 41.6169 8.6942 41.6169 8.13369V6.21133C41.6169 4.2433 40.5887 3.04754 38.7313 3.04754C37.6907 3.04754 36.8574 3.5001 36.5423 4.16857V3.21362H34.291V10.8408H36.5423V6.5601L36.5381 6.55179ZM27.8358 10.9819C29.1667 10.9819 29.9212 10.5294 30.3607 9.87751C30.4975 10.301 30.8002 10.5418 31.0406 10.6954C31.4179 10.9072 31.8698 10.9695 32.2803 10.9695C32.641 10.9695 33.068 10.9238 33.2919 10.8491V8.97238C33.1882 8.98899 33.0182 9.00145 32.9146 9.00145C32.5207 9.00145 32.3549 8.77309 32.3549 8.15445V3.20531H30.1036V4.20593C29.8922 3.54162 29.0008 3.07245 27.8358 3.07245C25.6758 3.07245 24.0589 4.82873 24.0589 7.02096C24.0589 9.2132 25.6758 10.9861 27.8358 10.9861V10.9819ZM28.2421 5.11521C29.3449 5.11521 30.2363 5.94561 30.2363 7.02096C30.2363 8.09632 29.3449 8.92671 28.2421 8.92671C27.1393 8.92671 26.3101 8.09632 26.3101 7.02096C26.3101 5.94561 27.1559 5.11521 28.2421 5.11521ZM46.7496 10.9819C48.0804 10.9819 48.835 10.5294 49.2745 9.87751C49.4113 10.301 49.7139 10.5418 49.9544 10.6954C50.3317 10.9072 50.7836 10.9695 51.194 10.9695C51.5547 10.9695 51.9818 10.9238 52.2056 10.8491V8.97238C52.102 8.98899 51.932 9.00145 51.8284 9.00145C51.4345 9.00145 51.2687 8.77309 51.2687 8.15445V0.286485H49.0174V4.20593C48.806 3.54162 47.9146 3.07245 46.7496 3.07245C44.5895 3.07245 42.9726 4.82873 42.9726 7.02096C42.9726 9.2132 44.5895 10.9861 46.7496 10.9861V10.9819ZM47.16 5.11521C48.2628 5.11521 49.1542 5.94561 49.1542 7.02096C49.1542 8.09632 48.2628 8.92671 47.16 8.92671C46.0572 8.92671 45.228 8.09632 45.228 7.02096C45.228 5.94561 46.0738 5.11521 47.16 5.11521ZM51.3516 36.5372C44.4735 39.8339 44.1128 45.9539 44.1086 45.9622C57.5415 42.051 62.3051 31.5341 61.6252 25.327C61.5672 25.4889 61.2604 31.7874 51.3474 36.5372H51.3516ZM56.903 11.0608C59.2454 11.0608 61.1318 9.27548 61.1318 7.02096C61.1318 4.76645 59.2454 2.98111 56.903 2.98111C54.5605 2.98111 52.6741 4.76645 52.6741 7.02096C52.6741 9.27548 54.5481 11.0608 56.903 11.0608ZM56.903 5.02387C58.0058 5.02387 58.8806 5.91654 58.8806 7.02096C58.8806 8.12538 58.0058 9.01805 56.903 9.01805C55.8002 9.01805 54.9254 8.14199 54.9254 7.02096C54.9254 5.89993 55.7877 5.02387 56.903 5.02387ZM47.2139 24.9699C51.2065 25.5968 54.2123 29.0554 54.2123 33.2447C54.2123 33.4565 54.204 33.6682 54.1874 33.8758C56.9071 32.0614 60.1658 29.1301 60.7214 25.2937C60.7877 24.8412 60.796 24.3803 60.7711 23.936C57.9146 19.7633 53.1841 16.8985 47.7031 16.3836C47.5456 17.2472 47.2098 18.5094 46.4842 20C46.8076 19.8962 47.131 19.7924 47.4668 19.6969L48.5987 19.3689C48.694 19.3398 48.7645 19.398 48.7521 19.4976L48.6194 20.6518C48.5987 20.9176 48.4121 22.7735 47.2139 24.9657V24.9699ZM77.7197 41.4947C75.1202 41.4947 74.0464 40.2906 74.0464 37.3718V2.98111H64.6061V38.8291C64.6061 48.6651 71.0075 50.0602 75.5058 50.0602C77.2181 50.0602 79.0547 49.8692 80.0041 49.6159V41.2373C79.3076 41.4282 78.4204 41.4905 77.7239 41.4905L77.7197 41.4947ZM20.8416 7.11231C20.8416 5.87087 21.5962 5.13182 22.8814 5.13182C23.1675 5.13182 23.4245 5.16089 23.636 5.20656V3.08906C23.5158 3.07245 23.2587 3.04339 23.0473 3.04339C22.0066 3.04339 21.1899 3.48349 20.8416 4.25161V3.20946H18.5904V10.8366H20.8416V7.11646V7.11231ZM44.3615 46.8341L43.2297 47.1621C43.1343 47.1912 43.0638 47.133 43.0763 47.0334L43.209 45.8791C43.2297 45.6134 43.4163 43.7367 44.6352 41.5279C40.5804 40.93 37.6078 37.5046 37.6078 33.2447C37.6078 33.0496 37.6161 32.8586 37.6285 32.6676C34.9129 34.482 31.6625 37.4092 31.1111 41.2414C31.0448 41.694 31.0365 42.1548 31.0614 42.5949C33.9138 46.7511 38.636 49.6035 44.1376 50.11C44.2993 49.2464 44.6352 48.0008 45.3483 46.5352C45.0249 46.639 44.7015 46.7428 44.3657 46.8382L44.3615 46.8341ZM45.2363 20.4359C46.9403 17.3884 46.9361 15.1547 46.9361 15.1505C46.2355 15.1671 45.5348 15.163 44.8342 15.2003C42.6493 15.3083 40.5514 15.7982 38.5406 16.6577C35.3234 18.032 32.7073 20.1453 30.7421 23.0517C29.2828 25.2065 28.3914 27.5856 28.0307 30.1598C27.7322 32.2981 27.8483 34.4197 28.3541 36.5206C28.5862 37.4963 28.8806 38.4264 29.2537 39.3191C29.4196 36.122 30.7297 32.5804 32.9312 29.4997C35 26.6099 38.7645 22.8316 45.2363 20.4359ZM62.5746 27.2161C62.4088 30.4131 61.1028 33.9547 58.8972 37.0355C56.8284 39.9252 53.0638 43.7035 46.592 46.0992C44.8881 49.1467 44.8922 51.3805 44.8922 51.3846C45.5929 51.368 46.2935 51.3722 46.9942 51.3348C49.1791 51.2269 51.2769 50.7369 53.2877 49.8775C56.505 48.5032 59.1211 46.3898 61.0862 43.4835C62.5456 41.3286 63.437 38.9495 63.7977 36.3753C64.0962 34.2371 63.9801 32.1154 63.4743 30.0145C63.2421 29.0388 62.9478 28.1088 62.5746 27.2161ZM59.2745 47.6147C56.2148 50.2636 57.4005 52.734 57.4005 52.7382C63.7687 51.011 64.2869 44.3346 63.723 40.1287C63.6857 40.2408 62.5373 44.7955 59.2745 47.6147ZM40.4768 29.9938C47.3549 26.6971 47.7156 20.5771 47.7197 20.5688C34.2869 24.48 29.5232 34.9969 30.2031 41.204C30.2612 41.0421 30.568 34.7436 40.4809 29.9938H40.4768ZM20.1493 30.2636C14.0008 28.1046 11.4055 28.4866 11.4055 26.3276C11.4055 25.2481 12.4212 24.2973 14.573 24.2973C18.2463 24.2973 20.6343 25.4598 22.0398 26.585C22.0688 26.6099 22.1352 26.6224 22.2139 26.5767C22.2803 26.5352 22.2886 26.4646 22.2844 26.4231C22.2844 26.4231 22.2844 26.4189 22.2844 26.4106C22.0564 24.3014 22.1808 22.0967 22.8648 19.9958C23.0556 19.4104 23.2919 18.8457 23.5655 18.3018C23.5655 18.3018 20.2405 16.3047 14.83 16.3047C8.3665 16.3047 2.40879 19.7301 2.40879 26.585C2.40879 31.4096 5.32338 33.9464 9.75954 35.4702C14.6393 37.1185 19.0091 37.3095 19.0091 39.4685C19.0091 40.9923 17.5497 42.0718 14.1915 42.0718C10.4519 42.0718 7.15589 40.6103 5.44776 38.58L0 44.4135C2.40879 47.3946 6.77861 50.1266 13.9428 50.1266C23.7023 50.1266 28.0099 45.493 28.0099 39.3398C28.0099 35.2792 25.9204 32.2317 20.1534 30.2636H20.1493ZM15.6426 2.55761C16.3516 2.55761 16.9279 1.99709 16.9279 1.28711C16.9279 0.577122 16.3557 0 15.6426 0C14.9295 0 14.3574 0.560514 14.3574 1.28711C14.3574 2.0137 14.9461 2.55761 15.6426 2.55761ZM16.7786 3.20531H14.5274V8.81876C14.5274 10.3924 15.3109 10.9653 16.5216 10.9653C17.1393 10.9653 17.4876 10.874 17.5622 10.8449V8.92256C17.5332 8.93917 17.3798 8.95162 17.2886 8.95162C16.8947 8.95162 16.7745 8.6942 16.7745 8.1503V3.20531H16.7786ZM8.63599 10.9985C10.5099 10.9985 12.1393 10.1349 13.1095 8.85198V4.58376H8.1675V6.64313H10.9328V8.06726C10.3441 8.59871 9.54395 8.88519 8.63599 8.88519C6.76202 8.88519 5.29851 7.47768 5.29851 5.57193C5.29851 3.66618 6.76202 2.24206 8.63599 2.24206C9.60199 2.24206 10.5099 2.57421 11.1443 3.20946L12.7156 1.83101C11.6708 0.755657 10.2488 0.120407 8.63599 0.120407C5.5058 0.120407 2.96849 2.42059 2.96849 5.56778C2.96849 8.71496 5.5058 10.9985 8.63184 10.9985H8.63599Z" fill="#FFA07A"/>
</g>
<defs>
<clipPath id="clip0_11_8165">
<rect width="80" height="61.2903" fill="white"/>
</clipPath>
</defs>
</svg>
