<svg width="164" height="47" viewBox="0 0 164 47" fill="none" xmlns="http://www.w3.org/2000/svg">
<g clip-path="url(#clip0_11_8110)">
<path d="M120.102 20.6274C119.8 22.3862 119.008 23.8895 117.817 25.1647C115.228 27.9474 111.573 29.4707 107.6 29.475C100.998 29.4792 96.7906 25.1689 96.7822 18.3608C96.7822 14.9126 97.5865 11.7966 100.254 9.40598C104.057 6.00403 109.381 7.39908 111.042 12.2676C111.806 14.5173 113 15.2732 115.988 15.392C118.747 15.5045 120.573 17.8362 120.102 20.6274ZM127.207 12.9887C125.277 12.6345 122.933 13.7278 121.863 15.5118C121.047 16.8701 120.761 18.3187 121.574 19.7601C122.369 21.1761 123.665 21.7785 125.542 21.767C127.002 21.7333 128.45 20.9901 129.552 19.616C131.634 17.0194 130.4 13.5754 127.207 12.9887ZM113.078 8.55864C115.262 8.56705 117.087 6.58854 117.107 4.17374C117.131 1.77892 115.583 0.0527193 113.42 0.0495654C111.276 0.0411552 109.471 1.99444 109.434 4.35982C109.403 6.73362 110.97 8.54603 113.078 8.55864ZM124.847 8.25377C124.859 6.27316 123.424 4.74459 121.514 4.712C119.198 4.66995 117.043 6.87554 117.022 9.30295C117.006 11.4055 118.409 12.9194 120.368 12.912C122.66 12.9036 124.831 10.6486 124.847 8.25482V8.25377ZM105.185 6.79669C106.914 6.78828 108.205 5.31018 108.205 3.34113C108.209 1.42569 106.943 -0.0366397 105.31 0.00120648C103.661 0.0337962 102.277 1.62754 102.254 3.50618C102.23 5.38482 103.493 6.8051 105.185 6.79669Z" fill="#FFA07A"/>
<path d="M87.8767 43.646C87.3394 42.7519 86.9433 41.7803 86.7024 40.7654H80.4409L86.7266 35.1253L86.7476 35.0381C87.4099 31.9294 88.9185 29.2003 91.2303 26.9337C91.5664 26.6055 91.9209 26.2966 92.2921 26.0086H76.4724L75.4474 30.8266H83.9396L72.5753 41.1607L71.627 45.6161H88.785L88.9143 45.0053C88.5186 44.5924 88.1706 44.1365 87.8767 43.646ZM162.236 26.9547C160.888 25.9718 158.966 25.4766 156.534 25.4766C153.968 25.4766 151.808 26.1284 150.103 27.4257L149.589 27.842C150.22 29.399 150.047 31.1168 149.802 32.2606L148.95 36.8841C149.713 37.2973 150.699 37.6684 151.925 37.9827C155.549 38.8826 156.433 39.2621 156.638 39.4072C156.827 39.5439 157.012 39.7457 156.911 40.2366C156.811 40.6824 156.514 41.0125 155.99 41.248C155.408 41.5087 154.652 41.6443 153.738 41.6443C152.247 41.6443 151.257 41.3636 150.872 40.8191C150.727 40.6246 150.574 40.1956 150.658 39.2495L150.702 38.7995H148.6L148.214 40.8727C148.141 41.2196 147.855 43.6144 147.655 45.3722C148.885 45.9588 150.526 46.2552 152.557 46.2552C155.545 46.2552 157.92 45.6329 159.63 44.4102C161.347 43.1802 162.437 41.5665 162.863 39.609C163.193 38.0647 162.923 36.7601 162.062 35.7161C161.223 34.7248 159.815 33.9773 157.872 33.4979C154.254 32.6727 153.344 32.3215 153.115 32.1775C152.91 32.0577 152.733 31.88 152.842 31.3975C152.91 31.0632 153.163 30.7572 153.59 30.4892C154.053 30.1948 154.789 30.0518 155.785 30.0518C156.944 30.0518 157.691 30.3199 158.013 30.8445C158.178 31.1367 158.239 31.5625 158.186 32.1029L158.146 32.5497H163.889L163.929 32.1859C164.214 29.7375 163.643 27.9787 162.236 26.9547ZM52.2666 27.9545C51.7273 27.0799 51.0397 26.4606 50.2271 26.1095C49.4327 25.7659 48.5759 25.5901 47.7103 25.5933C46.4067 25.5933 45.1557 25.8656 43.9825 26.4102C43.0532 26.8517 42.189 27.513 41.4047 28.3677C41.1876 27.7235 40.8242 27.1384 40.3429 26.6583L40.3146 26.6331C39.483 25.9445 38.2845 25.5923 36.7486 25.5923C35.1517 25.5923 33.7441 25.9855 32.575 26.7613C32.1839 27.0136 31.7613 27.3732 31.303 27.8231L31.6898 26.0433H26.0602L25.1225 30.4198L27.2177 45.0967L27.2944 45.6171H27.7086L30.1939 33.9868C30.3989 33.0248 30.6722 32.3026 31.0023 31.8359C31.6131 31.0264 32.5372 30.6342 33.8324 30.6342C35.1885 30.6342 35.4892 31.2335 35.5985 31.6908C35.6742 31.9967 35.7068 32.6243 35.4208 33.929L32.9367 45.6171H39.2938L41.184 34.1056C41.3564 33.3266 41.6297 32.6485 41.9924 32.0997C42.6831 31.08 43.6208 30.5848 44.8593 30.5848C46.1818 30.5848 46.5035 31.1672 46.6328 31.5962C46.7368 31.9883 46.7253 32.5129 46.5844 33.1815L44.7741 45.6171H50.9315L52.459 33.4327C52.7207 32.1912 52.8574 31.2661 52.8858 30.5932C52.8974 29.5693 52.6934 28.681 52.2666 27.9545ZM16.728 26.9232L17.6048 35.1968H12.2327L16.728 26.9232ZM15.0428 19.3887L0 45.615H6.52215L9.40582 40.3922H18.2482L18.7875 45.615H25.4063L21.6585 19.3897L15.0428 19.3887ZM140.924 37.7987C140.559 39.3262 139.903 40.3786 138.974 40.94C138.009 41.5224 137.02 41.8157 136.031 41.8157C135.46 41.8157 135.026 41.6706 134.715 41.3657C134.438 41.1008 134.374 40.6183 134.526 39.9286C134.7 39.1065 135.145 38.5167 135.898 38.1288C136.368 37.8807 137.137 37.6663 138.182 37.4886L139.329 37.2867C139.82 37.206 140.304 37.0872 140.776 36.9314L141.134 36.7947L140.924 37.7987ZM146.635 40.5194L147.949 31.8989C148.48 29.4494 147.933 27.7453 146.333 26.8317C144.845 25.9907 143.007 25.5607 140.876 25.5607C137.603 25.5607 135.057 26.4323 133.32 28.1574C132.23 29.2602 131.439 30.6847 130.96 32.3857L130.811 32.9103H136.388L136.489 32.6537C136.742 31.9851 137.068 31.4563 137.446 31.081C137.981 30.5817 138.789 30.3252 139.851 30.3252C140.816 30.3252 141.512 30.4534 141.922 30.7047C142.05 30.7835 142.388 30.9948 142.207 31.8569C142.099 32.352 141.737 32.7158 141.098 32.9681C140.699 33.1247 140.036 33.2614 139.127 33.3728L137.41 33.5789C135.403 33.8228 133.811 34.2433 132.673 34.8257C130.558 35.9117 129.218 37.6957 128.696 40.1189C128.282 42.0343 128.583 43.5492 129.584 44.6184C130.57 45.6676 131.99 46.2037 133.807 46.2037C135.206 46.2037 136.549 45.8778 137.808 45.2418C138.541 44.8628 139.241 44.4225 139.899 43.9256L139.887 44.1232C139.875 44.487 139.907 44.8749 139.979 45.2839L140.043 45.614H146.084C146.084 45.614 146.506 41.1092 146.635 40.5194Z" fill="#FFA07A"/>
<path d="M100.49 39.553C99.5653 40.5065 98.4593 40.9691 97.1084 40.9691C95.8048 40.9691 94.9323 40.5349 94.4424 39.6445C93.9314 38.7151 93.8673 37.3443 94.2489 35.5729C94.5906 33.9875 95.153 32.7155 95.9215 31.783C97.4984 33.2653 99.8712 34.3302 102.613 34.694C102.581 34.9211 102.537 35.1513 102.485 35.3952C102.099 37.195 101.427 38.5953 100.49 39.553ZM108.689 31.7872C108.323 31.8114 107.958 31.8282 107.588 31.8282C105.939 31.8282 104.402 31.5801 103.011 31.106C102.433 30.8621 101.785 30.594 101.134 30.2839C100.186 29.7642 99.3219 29.1062 98.5686 28.3316C97.7859 27.5245 97.1308 26.6028 96.6259 25.5983C95.0176 26.0884 93.5513 26.9594 92.3514 28.1371C90.2761 30.1724 88.921 32.6166 88.3302 35.3952C87.7184 38.2484 88.0327 40.7294 89.2585 42.7731C90.5053 44.8546 92.8539 45.9059 96.239 45.9059C99.5852 45.9059 102.336 44.883 104.423 42.8561C106.471 40.8907 107.877 38.3518 108.456 35.5729C108.745 34.2314 108.818 32.9678 108.689 31.7872ZM127.528 27.2015C126.434 26.1113 124.834 25.5583 122.779 25.5583C121.617 25.5583 120.551 25.7686 119.582 26.1733C119.392 26.4046 119.196 26.6433 118.987 26.8703C116.795 29.22 113.944 30.7727 110.755 31.3909L107.712 45.6147H113.755L115.701 35.1071C115.935 34.0096 116.281 33.1013 116.735 32.399C117.587 31.0954 118.757 30.4626 120.313 30.4626C122.063 30.4626 122.312 31.3341 122.397 31.6274C122.538 32.0815 122.505 32.7712 122.304 33.6911L120.575 45.6147H126.764L128.432 32.6261C128.955 30.1409 128.654 28.3159 127.528 27.2015ZM65.0391 37.7995C64.6722 39.327 64.0172 40.3793 63.0889 40.9407C62.1228 41.5231 61.1335 41.8164 60.1453 41.8164C59.5703 41.8164 59.1435 41.6713 58.8302 41.3665C58.5526 41.1015 58.4885 40.619 58.6409 39.9294C58.8134 39.1073 59.2602 38.5175 60.0118 38.1296C60.4828 37.8815 61.2502 37.667 62.2963 37.4893L63.4422 37.2875C63.9332 37.2069 64.4172 37.0881 64.8898 36.9322L65.2472 36.7955L65.0391 37.7995ZM70.7486 40.5202L72.0637 31.8997C72.5946 29.4502 72.048 27.7461 70.4437 26.8325C68.9593 25.9915 67.1216 25.5615 64.9907 25.5615C61.7128 25.5615 59.1719 26.433 57.4341 28.1582C56.345 29.261 55.5523 30.6854 55.074 32.3864L54.9257 32.911H60.5028L60.6037 32.6545C60.856 31.9859 61.1819 31.4571 61.5604 31.0818C62.0955 30.5824 62.9028 30.3259 63.9646 30.3259C64.9297 30.3259 65.6257 30.4542 66.0357 30.7054C66.165 30.7843 66.5024 30.9956 66.3216 31.8576C66.2133 32.3528 65.8506 32.7165 65.2115 32.9688C64.813 33.1255 64.1497 33.2621 63.2414 33.3736L61.5204 33.5796C59.5177 33.8235 57.925 34.244 56.7875 34.8264C54.6724 35.9124 53.333 37.6964 52.8105 40.1196C52.3963 42.0351 52.697 43.55 53.7031 44.6191C54.6839 45.6683 56.1032 46.2045 57.9208 46.2045C59.3201 46.2045 60.6636 45.8786 61.922 45.2425C62.6554 44.8638 63.3552 44.4235 64.0141 43.9263L64.0014 44.124C63.9888 44.4877 64.0214 44.8756 64.094 45.2846L64.157 45.6147H70.1977C70.1977 45.6147 70.6203 41.11 70.7486 40.5202ZM33.2178 14.0079C32.7258 11.9705 30.8303 11.2325 29.2671 11.2325C26.8617 11.2325 25.001 13.1606 25.001 15.8098C25.001 18.478 26.8617 20.4428 29.2671 20.4428C30.7778 20.4428 32.3925 19.7216 33.1295 17.8829H28.5827V16.0621H35.2016C35.1133 17.126 35.026 17.8283 34.8683 18.2435V18.2256C34.0252 20.6415 31.4969 22.1911 29.2671 22.1911C25.8262 22.1911 23.2285 19.524 23.2285 15.8098C23.2285 12.0788 25.8788 9.41065 29.2671 9.41065C31.6199 9.41065 34.4646 10.6554 35.1143 14.0079H33.2178ZM38.4322 15.7026H40.5032C41.996 15.7026 42.734 14.6029 42.734 13.5033C42.734 12.4205 41.996 11.3219 40.5042 11.3219H37.7825V22.1017H36.0268V9.48319H40.5042C43.1724 9.48319 44.5065 11.5016 44.5065 13.5033C44.5065 15.2873 43.4363 16.982 41.3295 17.3615L45.2087 22.1017H42.9096L38.4322 16.5678V15.7026ZM45.3843 18.3161V9.50106H47.1757V18.3339C47.1757 19.7216 48.6327 20.4071 49.9321 20.4071C51.2136 20.4071 52.6707 19.7037 52.6707 18.315V9.50211H54.4621V18.335C54.4621 20.8949 52.0389 22.2289 49.9311 22.2289C47.7728 22.2289 45.3853 20.8938 45.3853 18.3171L45.3843 18.3161ZM60.5185 9.48319C63.1699 9.48319 64.504 11.5921 64.504 13.7009C64.504 15.8098 63.1699 17.9008 60.5196 17.9008H57.8146V22.1007H56.0243V9.48319H60.5185ZM60.5185 16.0989C62.0114 16.0989 62.7483 14.9089 62.7483 13.7188C62.7483 12.5119 62.0114 11.3219 60.5196 11.3219H57.8146V16.0989H60.5185ZM66.576 11.2315C67.1468 10.6313 67.833 10.1527 68.5934 9.82446C69.3538 9.4962 70.1727 9.32505 71.0009 9.32129C72.7386 9.32129 74.3019 10.0603 75.4425 11.2315C76.6115 12.4625 77.2649 14.0943 77.2686 15.7919C77.2649 17.4895 76.6115 19.1213 75.4425 20.3524C74.871 20.9562 74.1824 21.4371 73.4187 21.7657C72.655 22.0944 71.8323 22.2638 71.0009 22.2636C70.1719 22.2638 69.3517 22.0944 68.5908 21.7657C67.8298 21.437 67.1441 20.956 66.576 20.3524C65.4071 19.1213 64.7537 17.4895 64.75 15.7919C64.75 14.0079 65.4701 12.4036 66.576 11.2315ZM74.1778 12.5298C73.3526 11.6825 72.212 11.16 71.0009 11.16C70.4115 11.1636 69.829 11.2868 69.2886 11.5223C68.7483 11.7578 68.2614 12.1005 67.8575 12.5298C67.0101 13.4039 66.5378 14.5745 66.5413 15.7919C66.5413 17.0724 67.0502 18.2256 67.8575 19.0551C68.2614 19.4844 68.7483 19.8271 69.2886 20.0626C69.829 20.2981 70.4115 20.4213 71.0009 20.4249C72.212 20.4249 73.3526 19.9024 74.1778 19.0551C75.0167 18.1763 75.4824 17.0068 75.4772 15.7919C75.4821 14.5775 75.0164 13.4083 74.1778 12.5298Z" fill="#FFA07A"/>
</g>
<defs>
<clipPath id="clip0_11_8110">
<rect width="164" height="46.2564" fill="white"/>
</clipPath>
</defs>
</svg>
