<svg width="132" height="50" viewBox="0 0 132 50" fill="none" xmlns="http://www.w3.org/2000/svg">
<g clip-path="url(#clip0_11_8059)">
<mask id="mask0_11_8059" style="mask-type:luminance" maskUnits="userSpaceOnUse" x="0" y="-1" width="132" height="51">
<path d="M0 -0.000395795H132V49.5H0V-0.000395795Z" fill="white"/>
</mask>
<g mask="url(#mask0_11_8059)">
<path d="M87.8116 23.8C87.8989 23.8071 87.9695 23.8182 88.0401 23.8182C89.1831 23.819 90.3262 23.8404 91.4685 23.8127C93.3207 23.7674 95.1404 23.5192 96.861 22.7814C98.9512 21.8859 100.427 20.4176 101.049 18.1885C101.426 16.8424 101.449 15.4748 101.222 14.0985C100.912 12.2169 99.9801 10.7581 98.3039 9.81338C96.7753 8.95112 95.0889 8.68538 93.3747 8.62827C91.6065 8.56877 89.836 8.60368 88.0662 8.59812C87.9845 8.59812 87.9028 8.61161 87.8116 8.61954V23.8ZM87.8076 41.7187C87.8885 41.7258 87.9472 41.7354 88.0059 41.7346C89.7257 41.7068 91.4479 41.7195 93.1652 41.6386C94.7525 41.564 96.3137 41.2816 97.8066 40.7073C99.9333 39.8895 101.528 38.5306 102.203 36.2762C102.73 34.5168 102.691 32.7312 102.323 30.9527C101.934 29.0767 101.017 27.5179 99.4026 26.428C97.939 25.4404 96.2811 24.9541 94.5511 24.8534C92.3458 24.7249 90.1311 24.7503 87.9195 24.7114C87.887 24.7114 87.8536 24.7352 87.8076 24.7535V41.7187ZM83.8945 7.71127H84.3134C87.8179 7.71127 91.3217 7.70175 94.8255 7.71603C96.5905 7.72317 98.3341 7.9421 100.023 8.46644C101.666 8.9765 103.159 9.73723 104.264 11.1238C105.11 12.1852 105.511 13.4005 105.566 14.7339C105.725 18.5693 103.88 21.1862 100.533 22.8346C99.6786 23.255 98.7529 23.5303 97.8597 23.8722C97.7716 23.9055 97.682 23.9348 97.6186 23.957C98.6046 24.1998 99.6128 24.3965 100.588 24.6995C102.282 25.2246 103.789 26.0821 104.953 27.4561C106.287 29.0322 106.809 30.8964 106.806 32.9216C106.802 35.1514 106.166 37.1591 104.592 38.8043C103.457 39.9926 102.068 40.7906 100.548 41.3657C98.1873 42.2597 95.7274 42.6095 93.2144 42.6182C90.2516 42.6286 87.2881 42.6206 84.3253 42.6206H83.8945V7.71127Z" fill="#FFA07A"/>
<path d="M115.655 42.6094H111.729V7.7381H129.361V8.59084H115.667V23.9347H127.855V24.8152H115.655V42.6094Z" fill="#FFA07A"/>
<path d="M78.9946 41.7268V42.6025H61.1973V7.73285H65.1143V41.7268H78.9946Z" fill="#FFA07A"/>
<path d="M14.5927 8.47784C17.0288 8.47784 19.1587 9.24253 20.9268 10.7505L27.0928 4.70593C25.4111 3.33916 23.5818 2.64666 21.6518 2.64666C20.8285 2.64666 19.9733 2.77358 19.1095 3.02345C16.2919 3.84209 14.4071 5.64831 13.3568 8.5405C13.7765 8.49926 14.1913 8.47784 14.5927 8.47784ZM34.9737 10.768C38.299 8.57144 39.1057 8.45245 42.6547 8.41755C41.6068 4.99626 38.2696 2.6292 34.4462 2.6292C32.3702 2.6292 30.4395 3.37248 28.987 4.72497L34.9737 10.768ZM41.1412 16.8458C42.7198 14.9008 43.3885 12.7011 43.1275 10.3047C43.0728 9.79305 42.9062 9.6344 42.3858 9.59474C42.1066 9.57411 41.829 9.56301 41.5593 9.56301C39.3826 9.56301 37.5367 10.2301 35.924 11.6001L41.1412 16.8458ZM14.6268 9.61139C14.2699 9.61139 13.9002 9.63123 13.5274 9.67089C13.3505 9.68993 13.0229 10.0033 12.9967 10.1794C12.627 12.6781 13.2791 14.8865 14.9885 16.9236L20.205 11.6992C18.5796 10.2944 16.7527 9.61139 14.6268 9.61139ZM34.8349 12.6876C33.3483 14.524 32.6852 16.6689 32.8629 19.0661C32.9049 19.6373 33.0794 19.8158 33.6394 19.8618C33.9306 19.8856 34.2209 19.8975 34.5025 19.8975C36.5999 19.8975 38.4751 19.2224 40.0791 17.8905L34.8349 12.6876ZM15.9476 17.8953C17.5547 19.243 19.3713 19.926 21.3488 19.926C21.7137 19.926 22.0897 19.9022 22.4673 19.8562C22.7037 19.8269 23.1249 19.4556 23.1503 19.2541C23.4605 16.8181 22.8163 14.6224 21.237 12.7249L15.9476 17.8953ZM11.7624 10.0691C8.98047 11.1543 7.21866 12.9597 6.3802 15.5814C5.42909 18.5593 5.97802 21.2793 8.0603 23.8907L14.1437 17.7692C12.3415 15.6314 11.5609 13.1072 11.7624 10.0691ZM47.9854 23.8939C50.0573 21.3333 50.6293 18.6497 49.7329 15.698C48.9151 13.0017 47.1469 11.1217 44.4768 10.1088C44.4269 10.4816 44.3872 10.852 44.3475 11.2177C44.2381 12.2371 44.1341 13.1993 43.8406 14.1242C43.5384 15.0801 43.0474 15.9812 42.573 16.8522C42.3882 17.1909 42.2042 17.5288 42.0312 17.8691L47.9854 23.8939ZM34.6746 29.5323C34.278 29.5323 33.8679 29.5593 33.4554 29.6124C33.2389 29.6402 32.9223 29.8631 32.8962 29.9567C32.582 32.6601 33.2357 34.9486 34.8396 36.7596L40.0902 31.5844C38.4981 30.2224 36.6776 29.5323 34.6746 29.5323ZM21.1957 36.7699C22.8116 34.7336 23.4129 32.5895 23.0353 30.2232C23.0067 30.0439 22.6006 29.6893 22.3412 29.66C21.9969 29.6227 21.6526 29.6029 21.3179 29.6029C19.357 29.6029 17.5722 30.2533 16.0103 31.5352L21.1957 36.7699ZM41.8781 31.682C43.6606 33.7889 44.4705 36.3534 44.2872 39.3115C46.9557 38.4444 48.9872 36.2844 49.7511 33.4811C50.523 30.6452 49.8551 27.7284 47.9647 25.6343L41.8781 31.682ZM8.04444 25.574C5.98437 28.0679 5.38467 30.8253 6.26121 33.7746C7.07905 36.5224 8.87814 38.3881 11.7568 39.4677C11.461 36.474 12.2336 33.9332 14.112 31.7153L8.04444 25.574ZM35.9042 37.8368C37.47 39.1663 39.3088 39.8398 41.3744 39.8406C41.8107 39.8406 42.2645 39.8096 42.7214 39.7501C42.8047 39.7319 43.0109 39.4741 43.0347 39.3035C43.3782 36.804 42.7269 34.5464 41.0976 32.5903L35.9042 37.8368ZM14.8854 32.6188C13.333 34.4679 12.6461 36.6668 12.842 39.1576C12.8825 39.6668 13.0514 39.8358 13.5647 39.8818C13.8756 39.9096 14.1858 39.9239 14.4864 39.9239C16.575 39.9239 18.4606 39.2409 20.0939 37.8939L14.8854 32.6188ZM28.2279 43.7798C28.4746 43.5173 28.7221 43.2515 28.9712 42.9842C29.6431 42.2616 30.3387 41.5151 31.0534 40.7996C31.7856 40.0659 32.5567 39.3448 33.3015 38.6467C33.5887 38.377 33.8774 38.1081 34.1646 37.836C32.5678 35.8291 31.7888 33.9634 31.715 31.9763C31.6524 30.3073 31.6436 29.4125 32.1521 28.8842C32.5035 28.5201 33.0683 28.371 34.1019 28.371C34.462 28.371 34.8975 28.3884 35.4711 28.4257C37.3876 28.551 39.1938 29.3189 40.9889 30.7737L46.9629 24.7886L40.9635 18.702C38.9447 20.2822 36.8458 21.0509 34.5517 21.0509C34.2138 21.0509 33.8687 21.0342 33.5236 21.0001C32.3385 20.8827 31.8189 20.3242 31.7309 19.0733C31.5405 16.3516 32.2893 13.9394 33.9583 11.8991L27.9701 5.82283L21.9668 11.7738C23.6604 13.791 24.4655 16.1192 24.36 18.6965C24.2799 20.6423 23.888 21.0215 21.8946 21.085C21.7796 21.0881 21.6645 21.0905 21.5503 21.0905C19.146 21.0905 16.9756 20.2957 15.0964 18.7274L9.06376 24.6895L15.1004 30.7491C17.0034 29.2293 19.0873 28.4598 21.2965 28.4598C21.6265 28.4598 21.966 28.4773 22.3031 28.5106C23.8999 28.6724 24.1585 28.9302 24.2775 30.4826C24.4766 33.0765 23.7278 35.4626 22.0516 37.5782L28.2279 43.7798ZM28.9601 44.7754C30.5989 46.1104 32.4147 46.7879 34.3589 46.7879C35.0094 46.7879 35.6852 46.7117 36.3682 46.5618C39.377 45.9002 41.4466 44.0551 42.6857 40.9249C42.2843 40.9646 41.8869 40.9844 41.5006 40.9844C39.0891 40.9844 36.9322 40.2221 35.0863 38.7181L28.9601 44.7754ZM13.2854 41.0344C14.4856 44.1233 16.5338 45.9573 19.5386 46.6363C20.2462 46.7966 20.9459 46.8775 21.6169 46.8775C23.635 46.8775 25.484 46.1517 27.1189 44.7206L21.0633 38.6166C19.077 40.2745 16.8789 41.0812 14.3468 41.0812C14.001 41.0812 13.6448 41.0653 13.2854 41.0344ZM21.2164 48.0039C17.2652 48.0039 13.6567 45.433 12.2368 41.6079C12.0924 41.2192 11.7093 40.7274 11.3182 40.5775C8.23402 39.3987 5.97009 37.0039 5.10782 34.007C4.24794 31.0196 4.88889 27.7998 6.86646 25.1718C6.9561 25.0536 7.04256 24.933 7.13458 24.8037L7.19724 24.7157C5.59012 22.704 4.81512 20.5995 4.82939 18.288C4.85478 14.0195 7.26626 10.5458 11.2785 8.99583C11.6807 8.84035 12.0956 8.45563 12.2233 8.11929C13.7479 4.10703 17.3699 1.51469 21.4512 1.51469C23.6381 1.51469 25.772 2.25241 27.6218 3.64853L27.9955 3.92934C29.7739 2.53798 31.4755 1.78677 33.3388 1.56863C33.7442 1.52104 34.1543 1.49724 34.5572 1.49724C38.7297 1.49724 42.2692 3.97456 43.7954 7.96302C43.9517 8.37154 44.3309 8.79355 44.6585 8.92365C47.837 10.1873 50.1279 12.6131 50.9426 15.5806C51.7605 18.5593 51.0251 21.8322 48.923 24.561C48.8849 24.6102 48.8564 24.6665 48.823 24.7307C48.8207 24.7347 48.8191 24.7379 48.8167 24.7411C51.0283 27.4405 51.7422 30.4183 50.9371 33.5921C50.0907 36.9293 48.0084 39.2258 44.7473 40.4173C44.1651 40.6299 43.8954 40.9019 43.6788 41.4977C42.2573 45.4108 38.6615 47.9389 34.5168 47.9389H34.516C32.2663 47.9389 30.1309 47.1789 28.3397 45.7416C28.3374 45.74 28.335 45.7376 28.3326 45.736C27.7726 45.9668 27.2292 46.2151 26.7017 46.4563C25.4809 47.0147 24.3267 47.5422 23.0979 47.8048C22.4792 47.9373 21.8462 48.0039 21.2164 48.0039Z" fill="#FFA07A"/>
</g>
</g>
<defs>
<clipPath id="clip0_11_8059">
<rect width="132" height="49.5" fill="white"/>
</clipPath>
</defs>
</svg>
