<svg width="164" height="34" viewBox="0 0 164 34" fill="none" xmlns="http://www.w3.org/2000/svg">
<g clip-path="url(#clip0_11_7703)">
<path fill-rule="evenodd" clip-rule="evenodd" d="M22.0042 0C20.4036 0 18.827 0.347131 17.7133 0.80515C16.5996 0.347131 15.023 0 13.4224 0C6.36889 0 0 6.67262 0 15.8234C0 25.8034 8.15275 33.5174 17.7133 33.5174C27.2739 33.5174 35.4266 25.8034 35.4266 15.8234C35.4266 6.67262 29.0577 0 22.0042 0ZM17.7133 5.43356C19.0729 6.24353 20.8664 8.58667 20.8664 11.2287C20.8664 13.1669 19.5888 14.6952 17.7133 14.6952C15.8378 14.6952 14.5602 13.1717 14.5602 11.2287C14.5602 8.58667 16.3537 6.24353 17.7133 5.43356ZM17.7133 29.159C10.3995 29.159 4.3536 23.277 4.3536 15.7366C4.3536 8.85183 9.32432 4.14628 13.2295 4.31985C11.3782 6.16157 10.2596 8.84701 10.2596 11.4505C10.2596 15.9198 13.8081 19.0536 17.7181 19.0536C21.6282 19.0536 25.1766 15.9198 25.1766 11.4505C25.1766 8.85183 24.0533 6.16639 22.2067 4.31985C26.1119 4.14628 31.0827 8.84701 31.0827 15.7366C31.0827 23.277 25.032 29.159 17.723 29.159H17.7133Z" fill="#FFA07A"/>
<path d="M60.9355 7.63672V11.2816H66.4945V24.9643H70.4286V11.2816H75.9875V7.63672H60.9355Z" fill="#FFA07A"/>
<path d="M125.719 7.63672H115.806V11.3105H125.454C126.866 11.3105 127.421 11.9566 127.421 13.6151V14.2274H119.427C116.385 14.2274 114.876 15.7461 114.876 19.1836V20.0033C114.876 23.5372 116.443 24.9595 119.596 24.9595H131.321V13.5717C131.321 9.20845 129.88 7.63672 125.719 7.63672ZM120.006 21.2568C119.408 21.2568 118.743 20.953 118.743 19.4681C118.743 17.9831 119.403 17.7228 120.006 17.7228H127.426V21.2616H120.006V21.2568Z" fill="#FFA07A"/>
<path d="M158.398 7.63672H148.49V11.3105H158.137C159.555 11.3105 160.104 11.9566 160.104 13.6151C160.104 13.6247 160.104 14.0876 160.104 14.2274H152.106C149.064 14.2274 147.555 15.7461 147.555 19.1836V20.0033C147.555 23.5372 149.122 24.9595 152.275 24.9595H164V13.5717C164 9.20845 162.558 7.63672 158.398 7.63672ZM152.685 21.2568C152.087 21.2568 151.421 20.953 151.421 19.4681C151.421 17.9831 152.082 17.7228 152.685 17.7228H160.104V21.2616H152.685V21.2568Z" fill="#FFA07A"/>
<path d="M77.2363 7.63672V11.2816H82.7952V24.9643H86.7342V11.2816H92.2931V7.63672H77.2363Z" fill="#FFA07A"/>
<path d="M132.112 7.63672V11.2816H137.671V24.9643H141.61V11.2816H147.169V7.63672H132.117H132.112Z" fill="#FFA07A"/>
<path d="M113.348 18.8895V13.7067C113.348 9.16506 111.588 7.63672 107.615 7.63672H97.0762V24.9595H107.799C112.012 24.9595 113.348 22.8671 113.348 18.8895ZM109.327 18.9667C109.327 20.6252 108.768 21.2712 107.35 21.2712H101.01V11.325H107.35C108.763 11.325 109.327 11.971 109.327 13.6295V18.9667Z" fill="#FFA07A"/>
<path d="M55.3816 20.8324C55.2996 20.6733 50.0396 10.4233 49.3935 9.41568C48.6511 8.24894 47.7495 7.43896 46.0187 7.43896C44.4132 7.43896 42.5088 8.15251 42.5088 12.0095V24.9642H46.3899V14.1598C46.3899 13.3836 46.3417 12.2361 46.332 12.0047C46.3224 11.8167 46.3321 11.6335 46.4285 11.5804C46.5394 11.5178 46.6503 11.619 46.7274 11.7636C46.8045 11.9083 51.6788 21.5508 52.7154 23.1804C53.4579 24.3471 54.3594 25.1571 56.0903 25.1571C57.6958 25.1571 59.6002 24.4436 59.6002 20.5865V7.63182H55.719V18.4363C55.719 19.2125 55.7673 20.3599 55.7769 20.5914C55.7865 20.7794 55.7769 20.9626 55.6805 21.0156C55.5696 21.0783 55.4587 20.9771 55.3816 20.8324Z" fill="#FFA07A"/>
</g>
<defs>
<clipPath id="clip0_11_7703">
<rect width="164" height="33.5175" fill="white"/>
</clipPath>
</defs>
</svg>
