<svg width="164" height="39" viewBox="0 0 164 39" fill="none" xmlns="http://www.w3.org/2000/svg">
<g clip-path="url(#clip0_11_8143)">
<path d="M38.0407 24.3211C37.5603 21.3995 35.2901 19.8399 32.9936 19.0042C34.3557 18.4976 35.7047 17.7408 36.6851 16.6024C37.8959 15.1943 38.3631 13.4308 38.0867 11.3646C37.8104 9.25887 36.9878 7.70592 35.6455 6.75178C35.0664 6.33065 34.4479 6.0806 33.8622 5.92925C33.2766 5.78448 32.7238 5.73842 32.2698 5.73842C32.1053 3.83673 31.0722 1.23752 27.8873 0.316282C24.1563 -0.762882 21.5637 1.277 20.6359 2.58647C20.3266 2.88259 19.6225 3.69854 19.0171 5.43573C18.4644 3.70512 17.8195 2.89575 17.5497 2.6128C16.6351 1.29674 14.0293 -0.762882 10.2851 0.322862C8.68611 0.783481 7.63327 1.66524 6.9555 2.67202C6.27773 3.67222 5.97504 4.80402 5.89608 5.75158C4.99458 5.75158 3.69169 5.92925 2.5204 6.76494C1.17803 7.72566 0.355494 9.27861 0.0791224 11.3777C-0.197249 13.4439 0.27653 15.2074 1.48072 16.6156C2.46118 17.7606 3.81013 18.5173 5.17225 19.0174C2.86916 19.8531 0.612124 21.4126 0.125184 24.3343C-0.23673 26.5321 0.144925 28.3351 1.27673 29.6906C2.63227 31.3225 4.70505 31.8292 5.90266 31.9871C6.08033 34.1915 7.25161 37.3895 10.8642 38.0278C12.9304 38.4358 14.7334 38.0739 16.2271 36.942C17.6024 35.8958 18.4775 34.3692 19.0303 32.9478C19.6094 34.3757 20.5174 35.9089 21.9124 36.9486C23.0245 37.7777 24.3011 38.1989 25.7158 38.1989C26.2291 38.1989 26.7555 38.1462 27.3083 38.0344C30.9208 37.3961 32.0855 34.2047 32.2698 31.9937C33.4674 31.8358 35.5402 31.3291 36.8957 29.6972C38.0209 28.3416 38.4092 26.5386 38.0473 24.3408M3.37584 30.0986C11.6604 19.8728 23.7286 13.0557 37.0734 11.4369C37.0405 11.1671 36.9878 10.9105 36.9352 10.667C36.7575 9.89715 36.4877 9.23254 36.1258 8.68638C22.3138 10.0946 9.79818 17.0696 1.30305 27.6507C0.99378 26.7558 0.941137 25.6898 1.13855 24.4856C1.48072 22.4128 2.9547 20.8928 5.52758 19.9584L7.04763 19.4056C7.21213 19.3464 7.31084 19.2082 7.324 19.0569C7.35032 18.8726 7.25161 18.6752 7.04763 18.6028L5.52758 18.0435C4.11283 17.5237 3.00734 16.813 2.25719 15.9378C1.24383 14.76 0.855594 13.2662 1.0859 11.4962C1.32937 9.68658 2.00714 8.37053 3.11263 7.5809C4.06676 6.89655 5.15251 6.75178 5.89608 6.75178H6.83048L6.91602 5.82397C7.00814 4.75138 7.54772 2.16534 10.5746 1.29016C11.18 1.11249 11.7788 1.02695 12.3579 1.02695C14.6084 1.02695 16.1547 2.38249 16.714 3.18528L16.7601 3.25108L16.8127 3.3103C16.9707 3.47481 17.5432 4.15916 18.0433 5.73842L18.5828 7.43613C18.6421 7.6138 18.7802 7.7125 18.9316 7.73224C19.1224 7.75856 19.3198 7.65986 19.3922 7.44929L19.9713 5.76474C20.524 4.1789 21.1491 3.49455 21.3334 3.32346L21.4058 3.25108L21.465 3.17212C21.6163 2.95497 23.0508 1.03353 25.808 1.03353C26.387 1.03353 26.9858 1.11907 27.5912 1.29674C30.6116 2.17192 31.1511 4.75796 31.2433 5.83055L31.3222 6.75836H32.2632C33.0068 6.75836 34.0925 6.90313 35.0401 7.58748C35.4612 7.88359 35.8166 8.25866 36.1061 8.70612C36.468 9.25228 36.7378 9.91689 36.9155 10.6868C36.9747 10.9303 37.0207 11.1869 37.0536 11.4567C37.0536 11.4698 37.0536 11.4896 37.0602 11.5027C37.205 12.5687 37.1129 13.5492 36.797 14.4046C25.0644 16.3392 14.4504 22.3141 6.70545 31.0593L6.0211 30.9672C5.3565 30.875 4.31681 30.6579 3.3561 30.1052M36.8299 27.7692C36.6588 28.2298 36.4154 28.6443 36.1061 29.0194C34.9611 30.4013 33.1252 30.8224 32.1316 30.9606L31.3157 31.0659L31.2498 31.8818C31.1643 32.9281 30.6181 36.3827 27.1306 37.0013C26.6305 37.1 26.1567 37.1526 25.7158 37.1526C24.5248 37.1526 23.4457 36.7973 22.5178 36.1064C21.4782 35.3299 20.6161 34.1257 19.9713 32.5333L19.4054 31.1514C19.2606 30.7961 18.7473 30.7961 18.6092 31.158L18.0696 32.553C17.4576 34.1323 16.6351 35.3299 15.602 36.1064C14.6939 36.7973 13.6279 37.1526 12.4434 37.1526C12.0026 37.1526 11.5354 37.1 11.055 37.0079C9.3573 36.7052 8.35052 35.7379 7.75171 34.6982C13.8385 27.4599 21.8401 21.9983 30.8353 18.9911C30.8353 19.0108 30.8353 19.0306 30.8353 19.0503C30.8485 19.1951 30.9406 19.3398 31.1117 19.3991L32.6317 19.9518C35.198 20.8862 36.6786 22.4062 37.0207 24.479C37.2313 25.7424 37.1589 26.8479 36.8102 27.7692" fill="#FFA07A"/>
<path d="M46.0752 15.6813V1.00732H52.9516C56.0838 1.00732 58.0513 2.97482 58.0513 5.98859C58.0513 9.00235 56.0904 10.8975 52.9516 10.8975H49.7009V16.5368H46.9306C46.4569 16.5368 46.0752 16.1551 46.0752 15.6813ZM52.5502 8.00215C54.0965 8.00215 54.8664 7.18619 54.8664 5.96885C54.8664 4.82388 54.0965 4.00793 52.5502 4.00793H49.6943V8.00873H52.5502V8.00215Z" fill="#FFA07A"/>
<path d="M70.0671 16.0429V5.46186C70.0671 5.22497 70.258 5.03414 70.4948 5.03414H73.2454V6.08698C74.2522 4.80383 75.305 4.73145 76.4697 4.73145C76.654 4.73145 76.7987 4.87621 76.7987 5.06046V8.19267C76.5158 8.1466 76.2394 8.12028 75.9565 8.12028C74.2719 8.12028 73.456 8.79805 73.456 10.5287V16.5364H70.5606C70.2843 16.5364 70.0605 16.3127 70.0605 16.0363L70.0671 16.0429Z" fill="#FFA07A"/>
<path d="M84.4979 16.5367V9.40367C84.4979 7.95601 83.9584 7.48881 82.741 7.48881C81.4052 7.48881 80.7275 8.16658 80.7275 9.5945V15.9247C80.7275 16.2669 80.4511 16.5433 80.1089 16.5433H77.332V5.60685C77.332 5.291 77.5887 5.03437 77.9045 5.03437H80.5564V6.48203C81.2078 5.31074 82.333 4.73168 84.011 4.7251C86.1562 4.7251 87.8999 6.46887 87.8999 8.61404V15.8786C87.8999 16.2406 87.6038 16.5367 87.2419 16.5367H84.4848H84.4979Z" fill="#FFA07A"/>
<path d="M113.398 16.5367V9.44973C113.398 8.27844 112.792 7.67306 111.924 7.67306C111.127 7.67306 110.147 8.21264 110.147 9.49579V15.8326C110.147 16.2208 109.831 16.5367 109.443 16.5367H106.752V9.47605C106.752 8.02181 106.238 7.60725 105.139 7.60725C104.106 7.60725 103.527 8.16658 103.527 9.42999V15.905C103.527 16.2537 103.238 16.5433 102.889 16.5433H100.132V5.54105C100.132 5.2581 100.362 5.03437 100.639 5.03437H103.336V6.48203C104.041 5.19888 105.093 4.7251 106.587 4.7251C108.081 4.7251 108.976 5.17256 109.792 6.33726C110.377 5.26468 111.292 4.7251 112.878 4.7251C115.286 4.7251 116.714 6.50177 116.714 8.48901V15.8655C116.714 16.234 116.411 16.5367 116.043 16.5367H113.391H113.398Z" fill="#FFA07A"/>
<path d="M117.655 15.8323V0.822754H120.366C120.702 0.822754 120.972 1.09913 120.972 1.42814V6.42914C121.696 5.21179 122.841 4.72485 124.222 4.72485C127.19 4.72485 128.901 7.25167 128.901 10.6668C128.901 14.5229 126.822 16.8391 123.92 16.8391C122.729 16.8391 121.603 16.3456 120.926 15.1809L120.906 16.5364H118.359C117.971 16.5364 117.655 16.2206 117.655 15.8323ZM125.466 10.8577C125.466 8.61379 124.67 7.63333 123.176 7.63333C121.682 7.63333 120.86 8.65985 120.86 10.9498C120.86 12.9831 121.84 14.082 123.176 14.082C124.512 14.082 125.466 12.9568 125.466 10.8577Z" fill="#FFA07A"/>
<path d="M137.014 15.839V15.1349C136.291 16.3062 135.211 16.8392 133.672 16.8392C131.355 16.8392 129.743 15.227 129.743 12.9831V5.03418H133.132V12.2396C133.132 13.5227 133.737 14.1084 134.882 14.1084C136.356 14.1084 136.85 13.1279 136.85 11.2789V5.03418H140.219V16.5431H137.712C137.324 16.5431 137.008 16.2272 137.008 15.839H137.014Z" fill="#FFA07A"/>
<path d="M148.978 9.14727C148.649 9.14727 148.352 8.95644 148.221 8.64717C147.925 7.94308 147.28 7.52852 146.464 7.52852C145.365 7.52852 144.404 8.23261 144.404 10.5686C144.404 12.9046 145.365 14.0035 146.372 14.0035C147.379 14.0035 148.241 13.4442 148.333 12.365H151.748C151.419 15.03 149.221 16.833 146.392 16.833C143.24 16.833 141.062 14.7537 141.062 10.6344C141.062 6.51516 143.24 4.71875 146.49 4.71875C149.524 4.71875 151.583 6.42304 151.774 9.14069H148.978V9.14727Z" fill="#FFA07A"/>
<path d="M152.104 10.7853C152.104 7.13982 154.393 4.73145 158.092 4.73145C161.79 4.73145 164.007 7.12008 164.007 10.7853C164.007 14.4505 161.717 16.8391 158.092 16.8391C154.466 16.8391 152.104 14.3584 152.104 10.7853ZM160.585 10.7853C160.585 8.58748 159.763 7.60702 158.085 7.60702C156.407 7.60702 155.578 8.58748 155.578 10.7853C155.578 12.9831 156.4 14.0096 158.085 14.0096C159.77 14.0096 160.585 12.9831 160.585 10.7853Z" fill="#FFA07A"/>
<path d="M69.3624 11.1075C69.3624 6.82378 67.4541 4.61939 63.9271 4.57991C60.7817 4.547 58.1957 7.09357 58.1365 10.2455C58.0509 14.6543 60.0184 16.8784 64.0455 16.8784C66.5592 16.8784 68.507 15.5229 69.2176 13.1277H66.421C66.0525 13.1277 65.6906 13.2724 65.4471 13.5488C65.1181 13.9239 64.5127 14.1476 63.8745 14.1476C62.5716 14.1476 61.6635 13.075 61.5714 11.6076H69.3624V11.1075ZM61.6437 9.54143C61.7622 8.06745 62.5913 7.31072 63.7823 7.31072C64.9734 7.31072 65.8222 8.00164 65.9209 9.54143H61.6503H61.6437Z" fill="#FFA07A"/>
<path d="M95.8347 15.543C95.8347 15.5957 95.8413 15.6417 95.8479 15.6944C95.9071 16.1682 96.3085 16.5235 96.7889 16.5235H99.0393V9.2523C99.0393 6.3504 97.7759 4.71191 94.0844 4.71191C93.9725 4.71191 93.8738 4.71191 93.7685 4.71191C90.2481 4.80404 89.011 6.43594 88.9649 8.7522H92.0313C92.1432 7.92308 92.6038 7.3506 93.7751 7.30454C93.8277 7.30454 93.8738 7.30454 93.9264 7.30454C94.8872 7.30454 95.6307 7.65329 95.6307 8.31132C95.6307 9.03515 95.2557 9.29178 93.9462 9.48261C93.887 9.48919 93.8277 9.50235 93.7685 9.50893C90.7745 9.96955 88.5898 10.5684 88.5898 13.5032C88.5898 15.5628 89.7611 16.8262 92.3998 16.8262C92.9065 16.8262 93.3605 16.7801 93.7685 16.6946C94.7358 16.4906 95.4267 16.0695 95.8413 15.543H95.8347ZM93.7619 14.3586C93.5711 14.3981 93.3671 14.4178 93.1434 14.4178C92.3472 14.4178 91.9063 14.0427 91.9063 13.3189C91.9063 12.5424 92.334 12.1016 93.7619 11.7594C93.8343 11.7462 93.9067 11.7265 93.9857 11.7067C94.9661 11.4962 95.4136 11.358 95.6702 11.1211L95.6505 12.1016C95.6307 13.1347 94.999 14.1085 93.7685 14.3586H93.7619Z" fill="#FFA07A"/>
<path d="M50.8064 27.9404C50.3655 26.9862 49.5759 26.5848 48.6876 26.5848C47.0951 26.5848 46.0752 27.8746 46.0752 29.8947C46.0752 32.0399 47.2267 33.2835 48.8192 33.2835C49.6351 33.2835 50.4379 32.9611 50.8393 31.9741V32.6847C50.8393 32.9216 51.0301 33.1125 51.267 33.1125H52.0961V24.4199H50.813V27.9404H50.8064ZM49.1153 32.2175C48.1085 32.2175 47.3978 31.3884 47.3978 29.8881C47.3978 28.5063 48.0032 27.6903 49.1021 27.6903C50.2932 27.6903 50.8591 28.6445 50.8591 29.9408C50.8591 31.4411 50.0957 32.2175 49.1153 32.2175Z" fill="#FFA07A"/>
<path d="M55.6431 26.5781C53.6492 26.5781 52.9517 27.4994 52.9254 28.8154H54.1296C54.1954 28.0653 54.5968 27.5849 55.5904 27.5849C56.5182 27.5849 56.9723 27.9863 56.9723 28.6707C56.9196 29.1378 56.4788 29.2037 55.5641 29.3287C54.0375 29.5392 52.7148 29.7432 52.7148 31.4146C52.7148 32.5925 53.3729 33.2768 54.8008 33.2768C55.9655 33.2768 56.6762 32.8096 57.0118 32.2437C57.0118 32.3293 57.0249 32.5333 57.0447 32.7307C57.0578 32.9478 57.2355 33.1123 57.4526 33.1123H58.2949V29.0918C58.2949 27.4862 57.6237 26.5847 55.6431 26.5847V26.5781ZM56.9854 30.7434C56.946 31.6515 56.1826 32.349 55.1101 32.349C54.3731 32.349 54.0112 32.0134 54.0112 31.3817C54.0112 30.5921 54.5573 30.3749 55.5773 30.2039C56.2616 30.0986 56.8078 30.0525 56.9986 29.8288L56.9854 30.75V30.7434Z" fill="#FFA07A"/>
<path d="M57.1166 23.6694L54.4121 25.354L54.7477 25.9462L57.6496 24.5775L57.1166 23.6694Z" fill="#FFA07A"/>
<path d="M72.9749 28.9139C71.4943 28.2164 69.7374 27.8874 68.3227 27.5255C67.0856 27.1964 66.2367 26.8279 66.2367 26.0449C66.2367 25.3474 66.9342 24.8078 68.3819 24.8078C69.8295 24.8078 70.527 25.3803 70.7376 26.3476C70.7903 26.5779 70.9877 26.7424 71.218 26.7424H74.9029C74.6924 23.5378 72.817 21.8467 68.4674 21.8467C63.723 21.8467 62.0582 23.8405 62.0582 26.262C62.0582 27.8018 62.7228 29.2232 64.7167 30.2234C65.7169 30.7037 66.5328 30.9472 69.0991 31.5855C70.4283 31.9145 71.0666 32.1909 71.0666 32.9739C71.0666 33.9741 70.0664 34.3623 68.8293 34.3623C66.9869 34.3623 65.9867 33.5135 65.9867 32.3356H62.1964C61.8148 32.3356 61.5187 32.6778 61.5779 33.0529C62.0122 35.7837 64.5061 37.5011 68.7964 37.5011C73.3895 37.5011 75.3241 35.5336 75.3241 32.6317C75.3241 30.5787 74.3568 29.5785 72.9683 28.9139H72.9749Z" fill="#FFA07A"/>
<path d="M83.4903 21.8403C79.0947 21.8403 76.2323 24.479 75.8112 28.5851C75.7717 28.9339 75.752 29.2958 75.752 29.6709C75.752 30.0459 75.7717 30.4013 75.8112 30.7566C76.2323 34.7903 79.0158 37.5014 83.4903 37.5014C87.9649 37.5014 91.1366 34.3889 91.1366 29.6709C91.1366 24.9528 88.2018 21.8403 83.4903 21.8403ZM83.4903 33.8427C81.3123 33.8427 80.2529 32.5135 80.2529 29.6709C80.2529 26.8282 81.3123 25.5582 83.4903 25.5582C85.6684 25.5582 86.7278 26.8282 86.7278 29.6709C86.7278 32.5135 85.6684 33.8427 83.4903 33.8427Z" fill="#FFA07A"/>
<path d="M105.857 21.8401V18.2144H102.278C101.883 18.2144 101.56 18.5302 101.56 18.9316V24.0313L101.08 22.2612C101.014 22.0112 100.791 21.8401 100.527 21.8401H100.442C98.9283 21.8401 97.5728 21.9322 96.2699 23.5904V22.2283H92.7494C92.4204 22.2283 92.1572 22.4915 92.1572 22.8205V36.5667C92.1572 36.8628 92.3941 37.0997 92.6902 37.0997H96.5397V29.335C96.5397 27.0977 97.5991 26.2225 99.7706 26.2225C100.04 26.2225 100.948 26.2028 101.554 26.216V31.5131C101.554 34.7506 103.219 37.5011 107.693 37.5011C112.168 37.5011 113.8 34.6913 113.8 31.546V27.3149H110.398C110.023 27.3149 109.72 27.6176 109.72 27.9926V31.3617C109.72 32.8752 109.115 33.6911 107.785 33.6911C106.456 33.6911 105.851 32.8752 105.851 31.3354V25.321H113.8V22.2349H105.851V21.8401H105.857Z" fill="#FFA07A"/>
<path d="M128.974 30.1576C128.974 24.7091 126.539 21.8993 122.058 21.8467C118.05 21.8006 114.76 25.0513 114.681 29.0586C114.569 34.665 117.083 37.5011 122.203 37.5011C125.407 37.5011 127.888 35.7771 128.789 32.7239H125.229C124.762 32.7239 124.302 32.9081 123.992 33.2569C123.571 33.7306 122.808 34.0202 121.992 34.0202C120.327 34.0202 119.182 32.6581 119.057 30.7827H128.967V30.151L128.974 30.1576ZM119.156 28.1572C119.307 26.2818 120.367 25.3145 121.874 25.3145C123.38 25.3145 124.473 26.1897 124.591 28.1572H119.149H119.156Z" fill="#FFA07A"/>
<path d="M48.7666 34.4482L48.8258 36.7711L56.8274 34.3101L48.7666 34.4482Z" fill="#FFA07A"/>
</g>
<defs>
<clipPath id="clip0_11_8143">
<rect width="164" height="38.1787" fill="white"/>
</clipPath>
</defs>
</svg>
