<svg width="164" height="54" viewBox="0 0 164 54" fill="none" xmlns="http://www.w3.org/2000/svg">
<path d="M115.385 33.7492C115.761 34.1249 115.778 35.0027 115.823 35.5321C115.935 36.8778 115.983 44.8976 115.638 45.6252C114.934 47.1075 108.295 47.2407 107.523 45.5432C107.068 44.5492 107.089 35.4877 107.53 34.4425C107.632 34.2 107.898 33.7867 108.1 33.6467C108.848 33.1173 114.743 33.107 115.389 33.7526L115.385 33.7492ZM112.393 36.7412H111.027V43.2308H112.393V36.7412Z" fill="#FFA07A"/>
<path d="M139.205 33.3256C140.715 33.756 140.589 38.7154 140.384 39.9689C140.25 40.7853 139.571 41.2908 139.523 41.6904C139.39 42.8141 140.876 44.8942 140.401 46.3083C139.656 46.1511 137.474 46.5508 137.03 46.2638C136.698 46.0487 135.182 37.5063 135.277 46.3117H131.858V33.329C133.785 33.6808 137.539 32.8543 139.202 33.329L139.205 33.3256ZM136.989 36.7378H135.277V39.1321H136.989V36.7378Z" fill="#FFA07A"/>
<path d="M163.456 33.3257C164.3 33.5853 163.886 35.9625 163.972 36.7447H159.87C159.316 39.0297 161.625 37.8547 163.289 38.1075V41.5265L159.87 41.5231V43.2343L163.972 43.2309V46.3083H156.454V33.3291C158.234 33.6706 161.96 32.868 163.456 33.3291V33.3257Z" fill="#FFA07A"/>
<path d="M68.3324 33.3257V36.7447L64.5718 36.9155C64.5889 37.742 68.3324 39.8221 68.3324 40.3276V45.7926C68.3324 45.8301 67.8576 46.3049 67.82 46.3049H61.1596V43.2275H64.9168C65.8287 42.3326 61.6651 40.2217 61.3099 39.1527C61.0059 38.2407 60.8488 33.3257 62.0135 33.3257H68.3324Z" fill="#FFA07A"/>
<path d="M91.5577 33.3257C91.462 33.9029 91.6875 36.6149 91.5577 36.7447C91.4484 36.854 89.9318 36.6695 89.5049 36.7447V46.3083H86.0893V36.7447C85.6658 36.6695 84.1493 36.854 84.0365 36.7447C83.9068 36.6183 84.1322 33.9029 84.0365 33.3257H91.5508H91.5577Z" fill="#FFA07A"/>
<path d="M155.429 6.68408L158.332 16.9342L158.161 6.68408H163.968V30.2516H157.137L153.892 19.3183L154.404 30.2516H148.598V6.68408H155.429Z" fill="#FFA07A"/>
<path d="M145.415 7.47655C145.828 7.85227 146.163 8.65835 146.221 9.23216L146.02 28.5268C145.497 29.4353 145.07 30.0536 143.967 30.2312C142.023 30.542 135.431 30.4976 133.392 30.2585C131.814 30.0741 131.015 29.2748 130.831 27.6968C130.349 23.5913 130.441 13.7783 130.82 9.5703C130.919 8.4739 131.032 7.65075 132.105 7.09742C133.31 6.4792 141.573 6.4792 143.311 6.67389C143.943 6.74562 144.957 7.05644 145.415 7.47655ZM139.718 12.8322H137.327V24.4452H139.718V12.8322Z" fill="#FFA07A"/>
<path d="M90.5332 6.68408V12.8321H83.0189V15.223H89.5085V20.8588C89.5085 20.8963 89.0338 21.3711 88.9962 21.3711H83.0189C83.0189 21.9415 82.8208 24.4451 83.5312 24.4451H90.5332V30.2516H76.5293V7.19642C76.5293 7.15885 77.0041 6.68408 77.0416 6.68408H90.5332Z" fill="#FFA07A"/>
<path d="M120.249 6.68408V12.8321H112.735C112.632 13.4743 113.179 13.8158 113.582 14.2052C115.143 15.7286 119.344 17.8838 119.986 19.7555C120.399 20.9544 120.474 27.3552 120.095 28.5609C119.757 29.6368 118.749 30.1355 117.694 30.2584C115.494 30.5146 109.616 30.5249 107.423 30.2687C107.078 30.2277 106.245 30.1116 106.245 29.7393V24.4451H113.759C113.783 23.7654 113.875 23.1438 113.442 22.5426C112.174 20.7836 107.734 19.3388 106.819 16.8694C106.033 14.7517 105.456 6.68408 108.807 6.68408H120.249Z" fill="#FFA07A"/>
<path d="M74.8217 6.68408V12.8321H67.6489C67.5772 13.3581 67.6489 13.628 67.97 14.0481C69.1655 15.6227 74.2752 17.7813 74.7499 19.9058C74.9924 20.9954 75.0232 27.2459 74.8148 28.3628C74.6987 28.9878 73.4076 30.2516 72.9465 30.2516H61.1627V24.4451H68.3355C68.619 20.9476 62.6485 19.8716 61.5965 17.0094C61.0056 15.4006 60.729 8.70269 61.8561 7.54481C61.9688 7.42868 63.2941 6.68066 63.3829 6.68066H74.8251L74.8217 6.68408Z" fill="#FFA07A"/>
<path d="M105.22 6.68408V12.8321H98.0475C97.9758 13.3581 98.0475 13.628 98.3686 14.0481C99.6119 15.6876 104.64 17.6481 105.149 19.9058C105.391 20.9851 105.422 27.2527 105.21 28.3628C105.094 28.9878 103.803 30.2516 103.342 30.2516H91.5579V24.4451H98.7307C98.6453 23.8713 98.9219 22.9218 98.6589 22.4641C98.4779 22.1464 93.556 19.1715 92.6987 18.1809C91.2574 16.5107 90.9226 8.73343 92.323 7.456C92.4289 7.36037 94.0206 6.6875 94.1162 6.6875H105.217L105.22 6.68408Z" fill="#FFA07A"/>
<path d="M128.447 6.68408H121.957V30.2516H128.447V6.68408Z" fill="#FFA07A"/>
<path d="M26.6689 0L53.2763 26.6074L26.6074 53.2763L0 26.6723L26.6689 0.00341892V0ZM26.5049 1.20229L1.19545 26.5152L26.6621 51.9784L51.9715 26.6655L26.5049 1.20229Z" fill="#FFA07A"/>
<path d="M26.594 3.81152L49.3486 26.5627L26.5564 49.3583L3.80176 26.6071L26.594 3.81152ZM13.3415 21.371V31.6178H39.983V21.8834C39.983 21.2071 36.7177 21.2583 36.5845 21.3881C36.4855 21.4838 36.2942 23.4375 36.0483 24.0933C33.0187 32.0926 20.4015 32.3897 17.3753 24.6842C17.0235 23.7927 16.8732 21.494 16.7571 21.3745C16.6204 21.2344 13.9256 21.4701 13.3449 21.3745L13.3415 21.371Z" fill="#FFA07A"/>
</svg>
