<svg width="164" height="29" viewBox="0 0 164 29" fill="none" xmlns="http://www.w3.org/2000/svg">
<path d="M52.1721 12.7702H43.973C43.2865 12.7702 42.7279 12.2107 42.7279 11.5234V11.4888C42.7279 10.8006 43.2865 10.2404 43.973 10.2404H53.4172L56.5262 7.13135H43.973C41.5719 7.13135 39.6172 9.08521 39.6172 11.4888V11.5234C39.6172 13.9245 41.5711 15.8792 43.973 15.8792H52.1721C52.8586 15.8792 53.4172 16.4378 53.4172 17.1259V17.1622C53.4172 17.8487 52.8578 18.4073 52.1721 18.4073H42.7279L39.618 21.5172H52.1721C54.5732 21.5172 56.5262 19.5625 56.5262 17.1614V17.1251C56.5262 14.724 54.5732 12.7693 52.1721 12.7693V12.7702Z" fill="#FFA07A"/>
<path d="M118.154 7.12158V21.5165H121.615V7.12158H118.154Z" fill="#FFA07A"/>
<path d="M90.5047 7.13135H83.5482L81.4805 9.19908V21.5172H84.894V10.2593H90.5055C92.7449 10.2593 94.5659 12.0804 94.5659 14.3181V21.5172H97.9802V14.6044C97.9802 10.4838 94.6262 7.13135 90.5055 7.13135H90.5047Z" fill="#FFA07A"/>
<path d="M68.2284 21.5182H75.185L77.2527 19.4504V7.13232H73.8392V18.3902H68.2276C65.9883 18.3902 64.1672 16.5691 64.1672 14.3314V7.13232H60.7529V14.0451C60.7529 18.1657 64.107 21.5182 68.2276 21.5182H68.2284Z" fill="#FFA07A"/>
<path d="M113.927 18.7438V21.517H104.983L102.207 18.7438V7.13281H105.668V18.7438H113.927Z" fill="#FFA07A"/>
<path d="M151.948 18.7423L155.757 16.6168C157.808 15.4666 160.133 14.1654 162.36 12.8807C163.135 12.4335 163.617 11.6018 163.617 10.7049V9.64299C163.617 8.25845 162.49 7.13135 161.105 7.13135H151.395C148.377 7.13135 145.921 9.58688 145.921 12.6051V16.0426C145.921 19.06 148.376 21.5163 151.395 21.5163H164.001V18.7423H151.949H151.948ZM148.696 17.4106V12.9385C148.696 11.4508 149.906 10.2404 151.394 10.2404H162.005L148.696 17.4106Z" fill="#FFA07A"/>
<path d="M142.75 10.2405V7.12158H127.91L125.842 9.18931V13.6589V21.5165H129.301V16.6541H140.535V13.6589H129.301V10.2405H142.75Z" fill="#FFA07A"/>
<g style="mix-blend-mode:screen">
<path d="M28.4393 14.6958C28.1918 22.3363 21.9209 28.4545 14.2201 28.4545C6.51936 28.4545 0.247685 22.3363 0.000976562 14.6958H9.51782C9.68367 17.9179 11.5418 20.6911 14.221 22.1449C15.4958 22.8364 16.9562 23.2299 18.5091 23.2299C23.3236 23.2299 27.2561 19.4509 27.5003 14.6958H28.4401H28.4393Z" fill="#FFA07A"/>
<path d="M28.4391 13.7596H18.9231C18.7573 10.5375 16.8991 7.76348 14.2208 6.30963C12.946 5.61819 11.4856 5.22461 9.93187 5.22461C5.11734 5.22461 1.18486 9.00445 0.940627 13.7596H0C0.246708 6.11903 6.51921 0 14.2192 0C21.9191 0 28.1924 6.11903 28.4383 13.7596H28.4391Z" fill="#FFA07A"/>
</g>
<path d="M28.4474 13.8179H18.9281C18.7622 10.595 16.9041 7.82015 14.2241 6.36548C12.9485 5.67321 11.488 5.28046 9.93435 5.28046C5.11817 5.28046 1.18486 9.06195 0.940627 13.8179H0C0.246708 6.17488 6.52086 0.0541992 14.2233 0.0541992C21.9257 0.0541992 28.1998 6.17488 28.4466 13.8179H28.4474Z" fill="#FFA07A"/>
<path d="M0.000976562 14.6367H9.52029C9.68614 17.8596 11.5443 20.6345 14.2243 22.0891C15.4999 22.7814 16.9603 23.1742 18.514 23.1742C23.3302 23.1742 27.2635 19.3927 27.5077 14.6367H28.4484C28.2017 22.2797 21.9275 28.4004 14.2251 28.4004C6.52266 28.4004 0.248511 22.2797 0.00180248 14.6367H0.000976562Z" fill="#FFA07A"/>
</svg>
