<svg width="164" height="31" viewBox="0 0 164 31" fill="none" xmlns="http://www.w3.org/2000/svg">
<path d="M3.31396 2.51294L6.04808 3.44476C6.70919 3.67023 6.34341 4.71407 5.60188 4.71407H1.56546C0.279529 4.71407 -0.538144 6.40078 0.41474 7.0893L6.76541 11.6742C7.73964 12.377 7.41442 13.8846 6.18969 14.6402L1.26657 17.8039C0.0952146 18.5259 0.288069 20.1491 1.54625 20.1456L14.0127 20.1113C15.2973 20.1078 16.1107 18.4239 15.1585 17.7361L10.8659 14.636C9.89164 13.9332 10.2211 12.427 11.4473 11.6714L26.3789 2.3417C27.5495 1.62106 27.3588 0 26.1028 0H4.19568C2.7297 0 2.00454 2.067 3.31396 2.51294Z" fill="#FFA07A"/>
<path d="M43.5657 10.124H21.4927L20.5938 15.2831H28.5481L25.9055 30.2902H32.0683L34.7109 15.2831H42.6674L43.5657 10.124Z" fill="#FFA07A"/>
<path d="M72.3364 10.1238L69.5745 25.8852C69.3317 27.2829 69.5366 28.3786 70.1821 29.1414C70.8276 29.9028 71.8629 30.2907 73.261 30.2907H90.3436L91.274 25.1038H75.8594L76.3914 22.1639H90.2386L90.9534 17.9884H77.1075L77.5738 15.2821H92.9884L93.8866 10.123H72.3371L72.3356 10.1245L72.3364 10.1238Z" fill="#FFA07A"/>
<path d="M101.042 22.1629H114.89L115.604 17.9874H101.758L102.224 15.2811H117.639L118.538 10.1221H96.9875V10.1235L94.2249 25.8849C93.9821 27.2827 94.187 28.3783 94.8325 29.1412C95.478 29.9026 96.5133 30.2904 97.9114 30.2904H114.994L115.924 25.1035H100.51L101.042 22.1636V22.1629Z" fill="#FFA07A"/>
<path d="M141.687 20.5143H141.688L140.615 16.0831C140.257 14.581 139.83 13.3918 139.343 12.5497C138.829 11.6633 138.053 10.9819 137.035 10.5219C136.045 10.0755 134.659 9.84912 132.915 9.84912C131.171 9.84912 129.693 10.0777 128.553 10.5269C127.403 10.9812 126.422 11.6447 125.637 12.4983C124.874 13.3268 124.054 14.4925 123.198 15.9624L120.585 20.3929C119.55 22.15 118.728 23.827 118.142 25.377C117.551 26.9447 117.213 28.439 117.137 29.8189L117.111 30.2889H121.727L121.854 30.0582L123.286 27.4511C123.437 27.1762 123.34 26.8312 123.067 26.674L122.541 26.3712C122.282 26.2219 122.388 25.8276 122.685 25.8276H136.447L137.268 29.9303L137.339 30.2889H141.728L141.821 29.9667C142.217 28.5904 142.403 27.0869 142.375 25.4991C142.347 23.922 142.115 22.2442 141.687 20.5122V20.5143ZM126.859 20.9457L128.432 18.0809C128.949 17.1552 129.383 16.466 129.725 16.0374C130.033 15.651 130.37 15.3817 130.727 15.2367H130.729C131.105 15.0853 131.627 15.0074 132.282 15.0074C133.061 15.0074 133.466 15.1253 133.67 15.2246C133.933 15.3524 134.138 15.5874 134.297 15.9431C134.485 16.361 134.678 17.0388 134.874 17.9595L135.471 20.9457H126.859Z" fill="#FFA07A"/>
<path d="M151.173 25.1312L153.816 10.124H147.653L144.891 25.8854C144.648 27.2839 144.858 28.381 145.516 29.1445C146.17 29.9052 147.21 30.2902 148.606 30.2902H163.103L164.001 25.1312H151.173Z" fill="#FFA07A"/>
<path d="M65.6813 10.8133C64.4625 10.3554 62.7881 10.124 60.7074 10.124H45.9368L42.3652 30.2909H48.5002L49.5156 24.5362H54.0733C54.6431 24.5362 55.1072 24.5741 55.4506 24.6498C55.7598 24.7176 56.0147 24.829 56.2089 24.979C56.4203 25.144 56.6352 25.3754 56.848 25.6697L60.034 30.2924H67.4828L62.6638 23.7712C62.6638 23.7712 62.6595 23.7655 62.6574 23.7627C62.431 23.462 61.9384 23.2227 61.4014 23.0377C61.1172 22.9406 61.1722 22.5263 61.4714 22.5084C62.4825 22.4506 63.6206 22.3313 64.309 22.0863C65.1251 21.7956 67.8677 20.8657 68.6074 16.6487C68.8609 15.2045 68.761 13.9853 68.3104 13.0239C67.8484 12.0382 66.9644 11.2947 65.682 10.8133H65.6813ZM62.0597 17.398V17.4037L62.0576 17.4094C61.9576 18.0265 61.7984 18.5129 61.5835 18.855C61.3878 19.1665 61.0922 19.3907 60.6795 19.5407C60.2268 19.7057 59.5685 19.7893 58.7259 19.7893H50.3524L51.1721 15.1459H59.6906C60.5246 15.1459 61.1401 15.2302 61.5221 15.3973C61.8405 15.5366 62.0233 15.7245 62.0976 15.9895C62.189 16.3159 62.1768 16.7887 62.0605 17.398H62.0597Z" fill="#FFA07A"/>
</svg>
