<svg width="64" height="64" viewBox="0 0 64 64" fill="none" xmlns="http://www.w3.org/2000/svg">
<rect width="64" height="64" rx="32" fill="#FFF4EE"/>
<path d="M14 20.3729H18.4068V44H14V20.3729Z" fill="#0A0A0A"/>
<path d="M26.5259 40.1356V44H21.4072V40.1356H26.5259Z" fill="#FF4D00"/>
<path d="M38.5423 44C36.8474 44 35.3107 43.6384 33.9322 42.9153C32.5762 42.1695 31.5028 41.1412 30.7118 39.8305C29.9209 38.4972 29.5254 36.9605 29.5254 35.2203C29.5254 33.435 29.9096 31.887 30.6779 30.5763C31.4689 29.2655 32.5423 28.2486 33.8983 27.5254C35.2542 26.7797 36.8022 26.4068 38.5423 26.4068C40.0565 26.4068 41.3446 26.6328 42.4067 27.0847C43.4689 27.5367 44.3277 28.1695 44.983 28.9831C45.6384 29.774 46.113 30.7006 46.4067 31.7627C46.7231 32.8249 46.8813 33.9774 46.8813 35.2203C46.8813 36.2147 46.7231 37.2316 46.4067 38.2712C46.0904 39.2881 45.6045 40.2373 44.9491 41.1186C44.2938 41.9774 43.435 42.678 42.3729 43.2203C41.3107 43.7401 40.0339 44 38.5423 44ZM39.9661 40.6102C41.2994 40.6102 42.4519 40.3842 43.4237 39.9322C44.3954 39.4802 45.1412 38.8475 45.661 38.0339C46.1808 37.2203 46.4406 36.2825 46.4406 35.2203C46.4406 34.0678 46.1695 33.096 45.6271 32.3051C45.1073 31.4915 44.3616 30.8701 43.3898 30.4407C42.4406 30.0113 41.2994 29.7966 39.9661 29.7966C38.0904 29.7966 36.6327 30.2938 35.5932 31.2881C34.5536 32.2825 34.0339 33.5932 34.0339 35.2203C34.0339 36.3051 34.2825 37.2542 34.7796 38.0678C35.2768 38.8588 35.9661 39.4802 36.8474 39.9322C37.7514 40.3842 38.7909 40.6102 39.9661 40.6102ZM46.4406 20H50.8474V43.6271H46.7457C46.6779 43.1073 46.6101 42.4407 46.5423 41.6271C46.4745 40.791 46.4406 40.0113 46.4406 39.2881V20Z" fill="#0A0A0A"/>
</svg>
